<svg width="87" height="48" viewBox="0 0 87 48" fill="none" xmlns="http://www.w3.org/2000/svg">
<g style="mix-blend-mode:multiply">
<rect width="87" height="48" rx="24" fill="#F2F4F7"/>
<g clip-path="url(#clip0_12164_440)">
<path d="M33.625 16.5C32.7962 16.5 32.0013 16.8292 31.4153 17.4153C30.8292 18.0013 30.5 18.7962 30.5 19.625C30.5 19.7908 30.4342 19.9497 30.3169 20.0669C30.1997 20.1842 30.0408 20.25 29.875 20.25C29.7092 20.25 29.5503 20.1842 29.4331 20.0669C29.3158 19.9497 29.25 19.7908 29.25 19.625C29.25 18.7597 29.5066 17.9138 29.9873 17.1944C30.4681 16.4749 31.1513 15.9142 31.9508 15.583C32.7502 15.2519 33.6299 15.1653 34.4785 15.3341C35.3272 15.5029 36.1067 15.9196 36.7186 16.5314C37.3304 17.1433 37.7471 17.9228 37.9159 18.7715C38.0847 19.6201 37.9981 20.4998 37.667 21.2992C37.3358 22.0987 36.7751 22.7819 36.0556 23.2627C35.3362 23.7434 34.4903 24 33.625 24H18.625C18.4592 24 18.3003 23.9342 18.1831 23.8169C18.0658 23.6997 18 23.5408 18 23.375C18 23.2092 18.0658 23.0503 18.1831 22.9331C18.3003 22.8158 18.4592 22.75 18.625 22.75H33.625C34.4538 22.75 35.2487 22.4208 35.8347 21.8347C36.4208 21.2487 36.75 20.4538 36.75 19.625C36.75 18.7962 36.4208 18.0013 35.8347 17.4153C35.2487 16.8292 34.4538 16.5 33.625 16.5ZM24.875 17.75C24.5435 17.75 24.2255 17.8817 23.9911 18.1161C23.7567 18.3505 23.625 18.6685 23.625 19C23.625 19.1658 23.5592 19.3247 23.4419 19.4419C23.3247 19.5592 23.1658 19.625 23 19.625C22.8342 19.625 22.6753 19.5592 22.5581 19.4419C22.4408 19.3247 22.375 19.1658 22.375 19C22.375 18.5055 22.5216 18.0222 22.7963 17.6111C23.071 17.2 23.4615 16.8795 23.9183 16.6903C24.3751 16.5011 24.8778 16.4516 25.3627 16.548C25.8477 16.6445 26.2931 16.8826 26.6428 17.2322C26.9924 17.5819 27.2305 18.0273 27.327 18.5123C27.4234 18.9972 27.3739 19.4999 27.1847 19.9567C26.9955 20.4135 26.675 20.804 26.2639 21.0787C25.8528 21.3534 25.3695 21.5 24.875 21.5H18.625C18.4592 21.5 18.3003 21.4342 18.1831 21.3169C18.0658 21.1997 18 21.0408 18 20.875C18 20.7092 18.0658 20.5503 18.1831 20.4331C18.3003 20.3158 18.4592 20.25 18.625 20.25H24.875C25.2065 20.25 25.5245 20.1183 25.7589 19.8839C25.9933 19.6495 26.125 19.3315 26.125 19C26.125 18.6685 25.9933 18.3505 25.7589 18.1161C25.5245 17.8817 25.2065 17.75 24.875 17.75ZM18 25.875C18 25.7092 18.0658 25.5503 18.1831 25.4331C18.3003 25.3158 18.4592 25.25 18.625 25.25H31.1775C31.9192 25.25 32.6442 25.4699 33.2609 25.882C33.8776 26.294 34.3582 26.8797 34.642 27.5649C34.9259 28.2502 35.0001 29.0042 34.8554 29.7316C34.7108 30.459 34.3536 31.1272 33.8292 31.6517C33.3047 32.1761 32.6365 32.5333 31.9091 32.6779C31.1817 32.8226 30.4277 32.7484 29.7424 32.4645C29.0572 32.1807 28.4715 31.7001 28.0595 31.0834C27.6474 30.4667 27.4275 29.7417 27.4275 29C27.4275 28.8342 27.4933 28.6753 27.6106 28.5581C27.7278 28.4408 27.8867 28.375 28.0525 28.375C28.2183 28.375 28.3772 28.4408 28.4944 28.5581C28.6117 28.6753 28.6775 28.8342 28.6775 29C28.6775 29.4945 28.8241 29.9778 29.0988 30.3889C29.3735 30.8 29.764 31.1205 30.2208 31.3097C30.6776 31.4989 31.1803 31.5484 31.6652 31.452C32.1502 31.3555 32.5956 31.1174 32.9453 30.7678C33.2949 30.4181 33.533 29.9727 33.6295 29.4877C33.7259 29.0028 33.6764 28.5001 33.4872 28.0433C33.298 27.5865 32.9775 27.196 32.5664 26.9213C32.1553 26.6466 31.672 26.5 31.1775 26.5H18.625C18.4592 26.5 18.3003 26.4342 18.1831 26.3169C18.0658 26.1997 18 26.0408 18 25.875Z" fill="#101828"/>
</g>
<path d="M48.5504 30H46.6868L50.8743 18.3636H52.9027L57.0902 30H55.2266L51.9368 20.4773H51.8459L48.5504 30ZM48.8629 25.4432H54.9084V26.9205H48.8629V25.4432ZM67.8885 22.1477H66.1158C66.0476 21.7689 65.9207 21.4356 65.7351 21.1477C65.5495 20.8598 65.3222 20.6155 65.0533 20.4148C64.7843 20.214 64.4832 20.0625 64.1499 19.9602C63.8203 19.858 63.4699 19.8068 63.0987 19.8068C62.4283 19.8068 61.8279 19.9754 61.2976 20.3125C60.7711 20.6496 60.3544 21.1439 60.0476 21.7955C59.7446 22.447 59.593 23.2424 59.593 24.1818C59.593 25.1288 59.7446 25.928 60.0476 26.5795C60.3544 27.2311 60.773 27.7235 61.3033 28.0568C61.8336 28.3902 62.4302 28.5568 63.093 28.5568C63.4605 28.5568 63.8089 28.5076 64.1385 28.4091C64.4718 28.3068 64.773 28.1572 65.0419 27.9602C65.3108 27.7633 65.5381 27.5227 65.7237 27.2386C65.9131 26.9508 66.0438 26.6212 66.1158 26.25L67.8885 26.2557C67.7938 26.8277 67.6101 27.3542 67.3374 27.8352C67.0684 28.3125 66.7218 28.7254 66.2976 29.0739C65.8771 29.4186 65.3961 29.6856 64.8544 29.875C64.3127 30.0644 63.7218 30.1591 63.0817 30.1591C62.0741 30.1591 61.1764 29.9205 60.3885 29.4432C59.6006 28.9621 58.9794 28.2746 58.5249 27.3807C58.0741 26.4867 57.8487 25.4205 57.8487 24.1818C57.8487 22.9394 58.076 21.8731 58.5305 20.983C58.9851 20.089 59.6063 19.4034 60.3942 18.9261C61.1821 18.4451 62.0779 18.2045 63.0817 18.2045C63.6991 18.2045 64.2749 18.2936 64.8089 18.4716C65.3468 18.6458 65.8298 18.9034 66.2578 19.2443C66.6858 19.5814 67.04 19.9943 67.3203 20.483C67.6006 20.9678 67.79 21.5227 67.8885 22.1477Z" fill="#101828"/>
</g>
<defs>
<clipPath id="clip0_12164_440">
<rect width="20" height="20" fill="white" transform="translate(18 14)"/>
</clipPath>
</defs>
</svg>
