<svg width="109" height="48" viewBox="0 0 109 48" fill="none" xmlns="http://www.w3.org/2000/svg">
<g style="mix-blend-mode:multiply">
<rect width="109" height="48" rx="24" fill="#F2F4F7"/>
<g clip-path="url(#clip0_12164_433)">
<path d="M21.75 17.125C21.75 16.9592 21.8158 16.8003 21.9331 16.6831C22.0503 16.5658 22.2092 16.5 22.375 16.5H28.625C28.7908 16.5 28.9497 16.5658 29.0669 16.6831C29.1842 16.8003 29.25 16.9592 29.25 17.125V23.375C29.25 23.5408 29.1842 23.6997 29.0669 23.8169C28.9497 23.9342 28.7908 24 28.625 24H22.375C22.2092 24 22.0503 23.9342 21.9331 23.8169C21.8158 23.6997 21.75 23.5408 21.75 23.375V17.125Z" fill="#101828"/>
<path d="M19.25 16.5C19.25 15.837 19.5134 15.2011 19.9822 14.7322C20.4511 14.2634 21.087 14 21.75 14H29.25C29.913 14 30.5489 14.2634 31.0178 14.7322C31.4866 15.2011 31.75 15.837 31.75 16.5V26.5C32.413 26.5 33.0489 26.7634 33.5178 27.2322C33.9866 27.7011 34.25 28.337 34.25 29V29.625C34.25 29.7908 34.3158 29.9497 34.4331 30.0669C34.5503 30.1842 34.7092 30.25 34.875 30.25C35.0408 30.25 35.1997 30.1842 35.3169 30.0669C35.4342 29.9497 35.5 29.7908 35.5 29.625V24H34.875C34.7092 24 34.5503 23.9342 34.4331 23.8169C34.3158 23.6997 34.25 23.5408 34.25 23.375V19.4688C34.25 19.303 34.3158 19.144 34.4331 19.0268C34.5503 18.9096 34.7092 18.8438 34.875 18.8438H36.7437C36.73 18.2488 36.6775 17.7263 36.4925 17.3163C36.3935 17.0779 36.2209 16.8773 36 16.7437C35.77 16.6062 35.42 16.5 34.875 16.5C34.7092 16.5 34.5503 16.4342 34.4331 16.3169C34.3158 16.1997 34.25 16.0408 34.25 15.875C34.25 15.7092 34.3158 15.5503 34.4331 15.4331C34.5503 15.3158 34.7092 15.25 34.875 15.25C35.58 15.2483 36.1683 15.3883 36.64 15.67C37.1187 15.955 37.4325 16.3588 37.6325 16.8038C38.0013 17.6225 38 18.635 38 19.405V23.3737C38.0002 23.4559 37.9841 23.5373 37.9528 23.6133C37.9214 23.6893 37.8754 23.7583 37.8174 23.8165C37.7593 23.8747 37.6904 23.9208 37.6145 23.9523C37.5386 23.9838 37.4572 24 37.375 24H36.75V29.625C36.75 30.1223 36.5525 30.5992 36.2008 30.9508C35.8492 31.3025 35.3723 31.5 34.875 31.5C34.3777 31.5 33.9008 31.3025 33.5492 30.9508C33.1975 30.5992 33 30.1223 33 29.625V29C33 28.6685 32.8683 28.3505 32.6339 28.1161C32.3995 27.8817 32.0815 27.75 31.75 27.75V32.75H32.375C32.5408 32.75 32.6997 32.8158 32.8169 32.9331C32.9342 33.0503 33 33.2092 33 33.375C33 33.5408 32.9342 33.6997 32.8169 33.8169C32.6997 33.9342 32.5408 34 32.375 34H18.625C18.4592 34 18.3003 33.9342 18.1831 33.8169C18.0658 33.6997 18 33.5408 18 33.375C18 33.2092 18.0658 33.0503 18.1831 32.9331C18.3003 32.8158 18.4592 32.75 18.625 32.75H19.25V16.5ZM30.5 16.5C30.5 16.1685 30.3683 15.8505 30.1339 15.6161C29.8995 15.3817 29.5815 15.25 29.25 15.25H21.75C21.4185 15.25 21.1005 15.3817 20.8661 15.6161C20.6317 15.8505 20.5 16.1685 20.5 16.5V32.75H30.5V16.5Z" fill="#101828"/>
</g>
<path d="M47.3175 30V18.3636H51.4652C52.3705 18.3636 53.1205 18.5284 53.7152 18.858C54.3099 19.1875 54.755 19.6383 55.0504 20.2102C55.3459 20.7784 55.4936 21.4186 55.4936 22.1307C55.4936 22.8466 55.344 23.4905 55.0447 24.0625C54.7493 24.6307 54.3023 25.0814 53.7038 25.4148C53.1091 25.7443 52.361 25.9091 51.4595 25.9091H48.6072V24.4205H51.3004C51.8724 24.4205 52.3364 24.322 52.6925 24.125C53.0485 23.9242 53.3099 23.6515 53.4766 23.3068C53.6432 22.9621 53.7266 22.5701 53.7266 22.1307C53.7266 21.6913 53.6432 21.3011 53.4766 20.9602C53.3099 20.6193 53.0466 20.3523 52.6868 20.1591C52.3307 19.9659 51.861 19.8693 51.2777 19.8693H49.0732V30H47.3175ZM61.0675 30.1761C60.2076 30.1761 59.4671 29.9924 58.8459 29.625C58.2285 29.2538 57.7512 28.733 57.4141 28.0625C57.0807 27.3883 56.9141 26.5985 56.9141 25.6932C56.9141 24.7992 57.0807 24.0114 57.4141 23.3295C57.7512 22.6477 58.2209 22.1155 58.8232 21.733C59.4292 21.3504 60.1375 21.1591 60.9482 21.1591C61.4406 21.1591 61.9179 21.2405 62.38 21.4034C62.8421 21.5663 63.2569 21.822 63.6243 22.1705C63.9917 22.5189 64.2815 22.9716 64.4936 23.5284C64.7057 24.0814 64.8118 24.7538 64.8118 25.5455V26.1477H57.8743V24.875H63.147C63.147 24.428 63.0561 24.0322 62.8743 23.6875C62.6925 23.339 62.4368 23.0644 62.1072 22.8636C61.7815 22.6629 61.3989 22.5625 60.9595 22.5625C60.4822 22.5625 60.0656 22.6799 59.7095 22.9148C59.3572 23.1458 59.0845 23.4489 58.8913 23.8239C58.7019 24.1951 58.6072 24.5985 58.6072 25.0341V26.0284C58.6072 26.6117 58.7095 27.108 58.9141 27.517C59.1224 27.9261 59.4122 28.2386 59.7834 28.4545C60.1546 28.6667 60.5883 28.7727 61.0845 28.7727C61.4065 28.7727 61.7 28.7273 61.9652 28.6364C62.2304 28.5417 62.4595 28.4015 62.6527 28.2159C62.8459 28.0303 62.9936 27.8011 63.0959 27.5284L64.7038 27.8182C64.575 28.2917 64.344 28.7064 64.0107 29.0625C63.6811 29.4148 63.2663 29.6894 62.7663 29.8864C62.2701 30.0795 61.7038 30.1761 61.0675 30.1761ZM70.7706 21.2727V22.6364H66.0036V21.2727H70.7706ZM67.282 19.1818H68.9808V27.4375C68.9808 27.767 69.0301 28.0152 69.1286 28.1818C69.227 28.3447 69.3539 28.4564 69.5092 28.517C69.6683 28.5739 69.8407 28.6023 70.0263 28.6023C70.1626 28.6023 70.282 28.5928 70.3842 28.5739C70.4865 28.5549 70.5661 28.5398 70.6229 28.5284L70.9297 29.9318C70.8312 29.9697 70.6911 30.0076 70.5092 30.0455C70.3274 30.0871 70.1001 30.1098 69.8274 30.1136C69.3804 30.1212 68.9638 30.0417 68.5774 29.875C68.1911 29.7083 67.8786 29.4508 67.6399 29.1023C67.4013 28.7538 67.282 28.3163 67.282 27.7898V19.1818ZM72.6499 30V21.2727H74.2919V22.6591H74.3828C74.5419 22.1894 74.8222 21.8201 75.2237 21.5511C75.629 21.2784 76.0874 21.142 76.5987 21.142C76.7048 21.142 76.8298 21.1458 76.9737 21.1534C77.1214 21.161 77.237 21.1705 77.3203 21.1818V22.8068C77.2521 22.7879 77.1309 22.767 76.9567 22.7443C76.7824 22.7178 76.6082 22.7045 76.4339 22.7045C76.0324 22.7045 75.6745 22.7898 75.3601 22.9602C75.0495 23.1269 74.8033 23.3598 74.6214 23.6591C74.4396 23.9545 74.3487 24.2917 74.3487 24.6705V30H72.6499ZM82.1541 30.1761C81.3359 30.1761 80.6219 29.9886 80.0121 29.6136C79.4022 29.2386 78.9287 28.714 78.5916 28.0398C78.2545 27.3655 78.0859 26.5777 78.0859 25.6761C78.0859 24.7708 78.2545 23.9792 78.5916 23.3011C78.9287 22.6231 79.4022 22.0966 80.0121 21.7216C80.6219 21.3466 81.3359 21.1591 82.1541 21.1591C82.9723 21.1591 83.6863 21.3466 84.2962 21.7216C84.906 22.0966 85.3795 22.6231 85.7166 23.3011C86.0537 23.9792 86.2223 24.7708 86.2223 25.6761C86.2223 26.5777 86.0537 27.3655 85.7166 28.0398C85.3795 28.714 84.906 29.2386 84.2962 29.6136C83.6863 29.9886 82.9723 30.1761 82.1541 30.1761ZM82.1598 28.75C82.6901 28.75 83.1295 28.6098 83.478 28.3295C83.8265 28.0492 84.084 27.6761 84.2507 27.2102C84.4212 26.7443 84.5064 26.2311 84.5064 25.6705C84.5064 25.1136 84.4212 24.6023 84.2507 24.1364C84.084 23.6667 83.8265 23.2898 83.478 23.0057C83.1295 22.7216 82.6901 22.5795 82.1598 22.5795C81.6257 22.5795 81.1825 22.7216 80.8303 23.0057C80.4818 23.2898 80.2223 23.6667 80.0518 24.1364C79.8852 24.6023 79.8018 25.1136 79.8018 25.6705C79.8018 26.2311 79.8852 26.7443 80.0518 27.2102C80.2223 27.6761 80.4818 28.0492 80.8303 28.3295C81.1825 28.6098 81.6257 28.75 82.1598 28.75ZM89.8175 18.3636V30H88.1186V18.3636H89.8175Z" fill="#101828"/>
</g>
<defs>
<clipPath id="clip0_12164_433">
<rect width="20" height="20" fill="white" transform="translate(18 14)"/>
</clipPath>
</defs>
</svg>
