<svg width="123" height="48" viewBox="0 0 123 48" fill="none" xmlns="http://www.w3.org/2000/svg">
<g style="mix-blend-mode:multiply">
<rect width="123" height="48" rx="24" fill="#F2F4F7"/>
<g clip-path="url(#clip0_12164_436)">
<path fill-rule="evenodd" clip-rule="evenodd" d="M18.625 21.5C18.5315 21.5 18.4392 21.5211 18.3548 21.5615C18.2705 21.602 18.1964 21.6608 18.1378 21.7338C18.0793 21.8067 18.0379 21.8919 18.0166 21.9829C17.9953 22.074 17.9948 22.1687 18.015 22.26L20.08 31.5525C20.2341 32.2466 20.6203 32.8673 21.1748 33.3123C21.7294 33.7573 22.419 33.9998 23.13 34H30.37C31.081 33.9998 31.7706 33.7573 32.3251 33.3123C32.8797 32.8673 33.2659 32.2466 33.42 31.5525L33.5837 30.815C34.5399 30.9938 35.5281 30.7941 36.3398 30.2581C37.1515 29.722 37.7231 28.8915 37.934 27.9419C38.1449 26.9923 37.9785 25.9979 37.47 25.1686C36.9615 24.3394 36.1507 23.7402 35.2087 23.4975L35.485 22.26C35.5052 22.1687 35.5047 22.074 35.4834 21.9829C35.4621 21.8919 35.4207 21.8067 35.3622 21.7338C35.3036 21.6608 35.2295 21.602 35.1452 21.5615C35.0608 21.5211 34.9685 21.5 34.875 21.5H18.625ZM34.25 29.625C34.1177 29.6251 33.9856 29.6146 33.855 29.5938L34.9387 24.7212C35.5169 24.8887 36.0152 25.259 36.3424 25.7642C36.6695 26.2694 36.8036 26.8756 36.7198 27.4717C36.6361 28.0677 36.3403 28.6135 35.8866 29.0091C35.433 29.4046 34.8519 29.6233 34.25 29.625ZM21.3 31.2812L19.4037 22.75H34.0962L32.2 31.2812C32.1076 31.6977 31.8759 32.0702 31.5432 32.3373C31.2104 32.6043 30.7966 32.7499 30.37 32.75H23.13C22.7034 32.7499 22.2896 32.6043 21.9568 32.3373C21.6241 32.0702 21.3924 31.6977 21.3 31.2812Z" fill="#101828"/>
<path d="M23.5 15L23.4962 15.005L23.4787 15.0287C23.3878 15.1539 23.3027 15.2832 23.2237 15.4162C23.1567 15.5229 23.0978 15.6345 23.0475 15.75C23.015 15.825 23.005 15.865 23.0012 15.8787V15.8837C23.0157 15.9942 23.0545 16.1001 23.115 16.1937C23.2088 16.36 23.3375 16.5337 23.5 16.75L23.5125 16.765C23.66 16.9625 23.8375 17.1987 23.975 17.4437C24.115 17.6937 24.25 18.0125 24.25 18.375C24.25 18.61 24.1688 18.835 24.1013 18.9925C24.029 19.1601 23.9446 19.3222 23.8487 19.4775C23.7507 19.6414 23.6452 19.8007 23.5325 19.955L23.51 19.9862L23.5037 19.9962L23.5013 19.9987C23.402 20.1315 23.254 20.2194 23.0899 20.2431C22.9258 20.2668 22.759 20.2243 22.6262 20.125C22.4935 20.0257 22.4056 19.8777 22.3819 19.7136C22.3582 19.5496 22.4007 19.3828 22.5 19.25L22.5037 19.245L22.5213 19.2212C22.6122 19.0961 22.6973 18.9668 22.7763 18.8337C22.8433 18.7271 22.9022 18.6155 22.9525 18.5C22.985 18.425 22.995 18.385 22.9988 18.3712C22.9854 18.2591 22.947 18.1514 22.8862 18.0562C22.7702 17.8623 22.6412 17.6765 22.5 17.5L22.4875 17.485C22.3186 17.2691 22.1641 17.0424 22.025 16.8062C21.8547 16.5247 21.76 16.2039 21.75 15.875C21.75 15.64 21.8312 15.415 21.8987 15.2575C21.9725 15.085 22.0663 14.915 22.1513 14.7725C22.2505 14.6094 22.356 14.4501 22.4675 14.295L22.4987 14.2512C22.598 14.1185 22.746 14.0306 22.9101 14.0069C23.0742 13.9832 23.241 14.0257 23.3737 14.125C23.5065 14.2243 23.5944 14.3723 23.6181 14.5364C23.6418 14.7004 23.5993 14.8672 23.5 15ZM27.25 15L27.2462 15.005L27.2287 15.0287C27.1378 15.1539 27.0527 15.2832 26.9738 15.4162C26.9067 15.5229 26.8478 15.6345 26.7975 15.75C26.765 15.825 26.755 15.865 26.7512 15.8787V15.8837C26.7657 15.9942 26.8045 16.1001 26.865 16.1937C26.9588 16.36 27.0875 16.5337 27.25 16.75L27.2625 16.765C27.41 16.9625 27.5875 17.1987 27.725 17.4437C27.865 17.6937 28 18.0125 28 18.375C28 18.61 27.9188 18.835 27.8513 18.9925C27.779 19.1601 27.6946 19.3222 27.5988 19.4775C27.5007 19.6414 27.3952 19.8007 27.2825 19.955L27.26 19.9862L27.2537 19.9962L27.2513 19.9987C27.152 20.1315 27.004 20.2194 26.8399 20.2431C26.6758 20.2668 26.509 20.2243 26.3763 20.125C26.2435 20.0257 26.1556 19.8777 26.1319 19.7136C26.1082 19.5496 26.1507 19.3828 26.25 19.25L26.2538 19.245L26.2713 19.2212C26.3622 19.0961 26.4473 18.9668 26.5262 18.8337C26.5933 18.7271 26.6522 18.6155 26.7025 18.5C26.735 18.425 26.745 18.385 26.7488 18.3712C26.7354 18.2591 26.697 18.1514 26.6363 18.0562C26.5202 17.8623 26.3912 17.6765 26.25 17.5L26.2375 17.485C26.0686 17.2691 25.9141 17.0424 25.775 16.8062C25.6047 16.5247 25.51 16.2039 25.5 15.875C25.5 15.64 25.5812 15.415 25.6487 15.2575C25.7225 15.085 25.8163 14.915 25.9012 14.7725C26.0005 14.6094 26.106 14.4501 26.2175 14.295L26.2487 14.2512C26.348 14.1185 26.496 14.0306 26.6601 14.0069C26.8242 13.9832 26.991 14.0257 27.1237 14.125C27.2565 14.2243 27.3444 14.3723 27.3681 14.5364C27.3918 14.7004 27.3493 14.8672 27.25 15ZM31 15L30.9963 15.005L30.9788 15.0287C30.8878 15.1539 30.8027 15.2832 30.7238 15.4162C30.6567 15.5229 30.5978 15.6345 30.5475 15.75C30.515 15.825 30.505 15.865 30.5013 15.8787V15.8837C30.5157 15.9942 30.5545 16.1001 30.615 16.1937C30.7087 16.36 30.8375 16.5337 31 16.75L31.0125 16.765C31.16 16.9625 31.3375 17.1987 31.475 17.4437C31.615 17.6937 31.75 18.0125 31.75 18.375C31.75 18.61 31.6687 18.835 31.6012 18.9925C31.529 19.1601 31.4446 19.3222 31.3488 19.4775C31.2511 19.6414 31.146 19.8007 31.0338 19.955L31.01 19.9862L31.0037 19.9962L31.0013 19.9987C30.902 20.1315 30.754 20.2194 30.5899 20.2431C30.4258 20.2668 30.259 20.2243 30.1263 20.125C29.9935 20.0257 29.9056 19.8777 29.8819 19.7136C29.8582 19.5496 29.9007 19.3828 30 19.25L30.0037 19.245L30.0212 19.2212C30.1122 19.0961 30.1973 18.9668 30.2762 18.8337C30.3433 18.7271 30.4022 18.6155 30.4525 18.5C30.485 18.425 30.495 18.385 30.4987 18.3712C30.4854 18.2591 30.447 18.1514 30.3863 18.0562C30.2702 17.8623 30.1412 17.6765 30 17.5L29.9875 17.485C29.8186 17.2691 29.6641 17.0424 29.525 16.8062C29.3547 16.5247 29.26 16.2039 29.25 15.875C29.25 15.64 29.3313 15.415 29.3988 15.2575C29.4725 15.085 29.5663 14.915 29.6512 14.7725C29.7505 14.6094 29.856 14.4501 29.9675 14.295L29.9987 14.2512C30.098 14.1185 30.246 14.0306 30.4101 14.0069C30.5742 13.9832 30.741 14.0257 30.8737 14.125C31.0065 14.2243 31.0944 14.3723 31.1181 14.5364C31.1418 14.7004 31.0993 14.8672 31 15Z" fill="#101828"/>
</g>
<path d="M47.4425 30V18.3636H49.1982V23.9205H49.3402L54.2209 18.3636H56.4311L51.7379 23.6023L56.4482 30H54.3345L50.5732 24.8011L49.1982 26.3807V30H47.4425ZM58.478 30V21.2727H60.1768V30H58.478ZM59.3359 19.9261C59.0405 19.9261 58.7867 19.8277 58.5746 19.6307C58.3662 19.4299 58.2621 19.1913 58.2621 18.9148C58.2621 18.6345 58.3662 18.3958 58.5746 18.1989C58.7867 17.9981 59.0405 17.8977 59.3359 17.8977C59.6314 17.8977 59.8833 17.9981 60.0916 18.1989C60.3037 18.3958 60.4098 18.6345 60.4098 18.9148C60.4098 19.1913 60.3037 19.4299 60.0916 19.6307C59.8833 19.8277 59.6314 19.9261 59.3359 19.9261ZM66.5362 21.2727V22.6364H61.7692V21.2727H66.5362ZM63.0476 19.1818H64.7464V27.4375C64.7464 27.767 64.7957 28.0152 64.8942 28.1818C64.9927 28.3447 65.1196 28.4564 65.2749 28.517C65.4339 28.5739 65.6063 28.6023 65.7919 28.6023C65.9283 28.6023 66.0476 28.5928 66.1499 28.5739C66.2521 28.5549 66.3317 28.5398 66.3885 28.5284L66.6953 29.9318C66.5968 29.9697 66.4567 30.0076 66.2749 30.0455C66.093 30.0871 65.8658 30.1098 65.593 30.1136C65.1461 30.1212 64.7294 30.0417 64.343 29.875C63.9567 29.7083 63.6442 29.4508 63.4055 29.1023C63.1669 28.7538 63.0476 28.3163 63.0476 27.7898V19.1818ZM71.9979 30.1761C71.1532 30.1761 70.4259 29.9848 69.8161 29.6023C69.21 29.2159 68.7441 28.6837 68.4183 28.0057C68.0926 27.3277 67.9297 26.5511 67.9297 25.6761C67.9297 24.7898 68.0964 24.0076 68.4297 23.3295C68.763 22.6477 69.2327 22.1155 69.8388 21.733C70.4448 21.3504 71.1589 21.1591 71.9808 21.1591C72.6437 21.1591 73.2346 21.2822 73.7536 21.5284C74.2725 21.7708 74.6911 22.1117 75.0092 22.5511C75.3312 22.9905 75.5225 23.5038 75.5831 24.0909H73.9297C73.8388 23.6818 73.6304 23.3295 73.3047 23.0341C72.9827 22.7386 72.5509 22.5909 72.0092 22.5909C71.5357 22.5909 71.121 22.7159 70.7649 22.9659C70.4126 23.2121 70.138 23.5644 69.9411 24.0227C69.7441 24.4773 69.6456 25.0152 69.6456 25.6364C69.6456 26.2727 69.7422 26.822 69.9354 27.2841C70.1286 27.7462 70.4013 28.1042 70.7536 28.358C71.1096 28.6117 71.5282 28.7386 72.0092 28.7386C72.3312 28.7386 72.6229 28.6799 72.8842 28.5625C73.1494 28.4413 73.371 28.2689 73.549 28.0455C73.7308 27.822 73.8577 27.553 73.9297 27.2386H75.5831C75.5225 27.803 75.3388 28.3068 75.032 28.75C74.7251 29.1932 74.3142 29.5417 73.799 29.7955C73.2876 30.0492 72.6873 30.1761 71.9979 30.1761ZM79.0987 24.8182V30H77.3999V18.3636H79.076V22.6932H79.1839C79.3885 22.2235 79.701 21.8504 80.1214 21.5739C80.5419 21.2973 81.0911 21.1591 81.7692 21.1591C82.3677 21.1591 82.8904 21.2822 83.3374 21.5284C83.7881 21.7746 84.1366 22.142 84.3828 22.6307C84.6328 23.1155 84.7578 23.7216 84.7578 24.4489V30H83.0589V24.6534C83.0589 24.0133 82.8942 23.517 82.5646 23.1648C82.2351 22.8087 81.7768 22.6307 81.1896 22.6307C80.7881 22.6307 80.4283 22.7159 80.1101 22.8864C79.7957 23.0568 79.5476 23.3068 79.3658 23.6364C79.1877 23.9621 79.0987 24.3561 79.0987 24.8182ZM90.7862 30.1761C89.9264 30.1761 89.1858 29.9924 88.5646 29.625C87.9472 29.2538 87.4699 28.733 87.1328 28.0625C86.7995 27.3883 86.6328 26.5985 86.6328 25.6932C86.6328 24.7992 86.7995 24.0114 87.1328 23.3295C87.4699 22.6477 87.9396 22.1155 88.5419 21.733C89.148 21.3504 89.8563 21.1591 90.6669 21.1591C91.1593 21.1591 91.6366 21.2405 92.0987 21.4034C92.5608 21.5663 92.9756 21.822 93.343 22.1705C93.7105 22.5189 94.0002 22.9716 94.2124 23.5284C94.4245 24.0814 94.5305 24.7538 94.5305 25.5455V26.1477H87.593V24.875H92.8658C92.8658 24.428 92.7749 24.0322 92.593 23.6875C92.4112 23.339 92.1555 23.0644 91.826 22.8636C91.5002 22.6629 91.1177 22.5625 90.6783 22.5625C90.201 22.5625 89.7843 22.6799 89.4283 22.9148C89.076 23.1458 88.8033 23.4489 88.6101 23.8239C88.4207 24.1951 88.326 24.5985 88.326 25.0341V26.0284C88.326 26.6117 88.4283 27.108 88.6328 27.517C88.8411 27.9261 89.1309 28.2386 89.5021 28.4545C89.8733 28.6667 90.3071 28.7727 90.8033 28.7727C91.1252 28.7727 91.4188 28.7273 91.6839 28.6364C91.9491 28.5417 92.1783 28.4015 92.3714 28.2159C92.5646 28.0303 92.7124 27.8011 92.8146 27.5284L94.4226 27.8182C94.2938 28.2917 94.0627 28.7064 93.7294 29.0625C93.3999 29.4148 92.9851 29.6894 92.4851 29.8864C91.9889 30.0795 91.4226 30.1761 90.7862 30.1761ZM98.1143 24.8182V30H96.4155V21.2727H98.0462V22.6932H98.1541C98.3549 22.2311 98.6693 21.8598 99.0973 21.5795C99.5291 21.2992 100.073 21.1591 100.728 21.1591C101.323 21.1591 101.844 21.2841 102.29 21.5341C102.737 21.7803 103.084 22.1477 103.33 22.6364C103.576 23.125 103.7 23.7292 103.7 24.4489V30H102.001V24.6534C102.001 24.0208 101.836 23.5265 101.506 23.1705C101.177 22.8106 100.724 22.6307 100.148 22.6307C99.7545 22.6307 99.4041 22.7159 99.0973 22.8864C98.7943 23.0568 98.5537 23.3068 98.3757 23.6364C98.2015 23.9621 98.1143 24.3561 98.1143 24.8182Z" fill="#101828"/>
</g>
<defs>
<clipPath id="clip0_12164_436">
<rect width="20" height="20" fill="white" transform="translate(18 14)"/>
</clipPath>
</defs>
</svg>
