<svg width="143" height="48" viewBox="0 0 143 48" fill="none" xmlns="http://www.w3.org/2000/svg">
<g style="mix-blend-mode:multiply">
<rect width="143" height="48" rx="24" fill="#F2F4F7"/>
<path fill-rule="evenodd" clip-rule="evenodd" d="M25.5 18.375C25.5 17.8777 25.6975 17.4008 26.0492 17.0492C26.4008 16.6975 26.8777 16.5 27.375 16.5H28.625C29.1223 16.5 29.5992 16.6975 29.9508 17.0492C30.3025 17.4008 30.5 17.8777 30.5 18.375V19.625C30.5 20.1223 30.3025 20.5992 29.9508 20.9508C29.5992 21.3025 29.1223 21.5 28.625 21.5V22.75H35.5C35.6658 22.75 35.8247 22.8158 35.9419 22.9331C36.0592 23.0503 36.125 23.2092 36.125 23.375V24.625C36.125 24.7908 36.0592 24.9497 35.9419 25.0669C35.8247 25.1842 35.6658 25.25 35.5 25.25C35.3342 25.25 35.1753 25.1842 35.0581 25.0669C34.9408 24.9497 34.875 24.7908 34.875 24.625V24H28.625V24.625C28.625 24.7908 28.5592 24.9497 28.4419 25.0669C28.3247 25.1842 28.1658 25.25 28 25.25C27.8342 25.25 27.6753 25.1842 27.5581 25.0669C27.4408 24.9497 27.375 24.7908 27.375 24.625V24H21.125V24.625C21.125 24.7908 21.0592 24.9497 20.9419 25.0669C20.8247 25.1842 20.6658 25.25 20.5 25.25C20.3342 25.25 20.1753 25.1842 20.0581 25.0669C19.9408 24.9497 19.875 24.7908 19.875 24.625V23.375C19.875 23.2092 19.9408 23.0503 20.0581 22.9331C20.1753 22.8158 20.3342 22.75 20.5 22.75H27.375V21.5C26.8777 21.5 26.4008 21.3025 26.0492 20.9508C25.6975 20.5992 25.5 20.1223 25.5 19.625V18.375ZM28.625 20.25C28.7908 20.25 28.9497 20.1842 29.0669 20.0669C29.1842 19.9497 29.25 19.7908 29.25 19.625V18.375C29.25 18.2092 29.1842 18.0503 29.0669 17.9331C28.9497 17.8158 28.7908 17.75 28.625 17.75H27.375C27.2092 17.75 27.0503 17.8158 26.9331 17.9331C26.8158 18.0503 26.75 18.2092 26.75 18.375V19.625C26.75 19.7908 26.8158 19.9497 26.9331 20.0669C27.0503 20.1842 27.2092 20.25 27.375 20.25H28.625ZM18 28.375C18 27.8777 18.1975 27.4008 18.5492 27.0492C18.9008 26.6975 19.3777 26.5 19.875 26.5H21.125C21.6223 26.5 22.0992 26.6975 22.4508 27.0492C22.8025 27.4008 23 27.8777 23 28.375V29.625C23 30.1223 22.8025 30.5992 22.4508 30.9508C22.0992 31.3025 21.6223 31.5 21.125 31.5H19.875C19.3777 31.5 18.9008 31.3025 18.5492 30.9508C18.1975 30.5992 18 30.1223 18 29.625V28.375ZM19.875 27.75C19.7092 27.75 19.5503 27.8158 19.4331 27.9331C19.3158 28.0503 19.25 28.2092 19.25 28.375V29.625C19.25 29.7908 19.3158 29.9497 19.4331 30.0669C19.5503 30.1842 19.7092 30.25 19.875 30.25H21.125C21.2908 30.25 21.4497 30.1842 21.5669 30.0669C21.6842 29.9497 21.75 29.7908 21.75 29.625V28.375C21.75 28.2092 21.6842 28.0503 21.5669 27.9331C21.4497 27.8158 21.2908 27.75 21.125 27.75H19.875ZM25.5 28.375C25.5 27.8777 25.6975 27.4008 26.0492 27.0492C26.4008 26.6975 26.8777 26.5 27.375 26.5H28.625C29.1223 26.5 29.5992 26.6975 29.9508 27.0492C30.3025 27.4008 30.5 27.8777 30.5 28.375V29.625C30.5 30.1223 30.3025 30.5992 29.9508 30.9508C29.5992 31.3025 29.1223 31.5 28.625 31.5H27.375C26.8777 31.5 26.4008 31.3025 26.0492 30.9508C25.6975 30.5992 25.5 30.1223 25.5 29.625V28.375ZM27.375 27.75C27.2092 27.75 27.0503 27.8158 26.9331 27.9331C26.8158 28.0503 26.75 28.2092 26.75 28.375V29.625C26.75 29.7908 26.8158 29.9497 26.9331 30.0669C27.0503 30.1842 27.2092 30.25 27.375 30.25H28.625C28.7908 30.25 28.9497 30.1842 29.0669 30.0669C29.1842 29.9497 29.25 29.7908 29.25 29.625V28.375C29.25 28.2092 29.1842 28.0503 29.0669 27.9331C28.9497 27.8158 28.7908 27.75 28.625 27.75H27.375ZM33 28.375C33 27.8777 33.1975 27.4008 33.5492 27.0492C33.9008 26.6975 34.3777 26.5 34.875 26.5H36.125C36.6223 26.5 37.0992 26.6975 37.4508 27.0492C37.8025 27.4008 38 27.8777 38 28.375V29.625C38 30.1223 37.8025 30.5992 37.4508 30.9508C37.0992 31.3025 36.6223 31.5 36.125 31.5H34.875C34.3777 31.5 33.9008 31.3025 33.5492 30.9508C33.1975 30.5992 33 30.1223 33 29.625V28.375ZM34.875 27.75C34.7092 27.75 34.5503 27.8158 34.4331 27.9331C34.3158 28.0503 34.25 28.2092 34.25 28.375V29.625C34.25 29.7908 34.3158 29.9497 34.4331 30.0669C34.5503 30.1842 34.7092 30.25 34.875 30.25H36.125C36.2908 30.25 36.4497 30.1842 36.5669 30.0669C36.6842 29.9497 36.75 29.7908 36.75 29.625V28.375C36.75 28.2092 36.6842 28.0503 36.5669 27.9331C36.4497 27.8158 36.2908 27.75 36.125 27.75H34.875Z" fill="#101828"/>
<path d="M48.5192 30H46.6555L50.843 18.3636H52.8714L57.0589 30H55.1953L51.9055 20.4773H51.8146L48.5192 30ZM48.8317 25.4432H54.8771V26.9205H48.8317V25.4432ZM64.1314 26.3807V21.2727H65.8359V30H64.1655V28.4886H64.0746C63.8738 28.9545 63.5518 29.3428 63.1087 29.6534C62.6693 29.9602 62.1219 30.1136 61.4666 30.1136C60.906 30.1136 60.4098 29.9905 59.978 29.7443C59.55 29.4943 59.2128 29.125 58.9666 28.6364C58.7242 28.1477 58.603 27.5436 58.603 26.8239V21.2727H60.3018V26.6193C60.3018 27.214 60.4666 27.6875 60.7962 28.0398C61.1257 28.392 61.5537 28.5682 62.0803 28.5682C62.3984 28.5682 62.7147 28.4886 63.0291 28.3295C63.3473 28.1705 63.6106 27.9299 63.8189 27.608C64.031 27.286 64.1352 26.8769 64.1314 26.3807ZM72.1925 21.2727V22.6364H67.4254V21.2727H72.1925ZM68.7038 19.1818H70.4027V27.4375C70.4027 27.767 70.4519 28.0152 70.5504 28.1818C70.6489 28.3447 70.7758 28.4564 70.9311 28.517C71.0902 28.5739 71.2625 28.6023 71.4482 28.6023C71.5845 28.6023 71.7038 28.5928 71.8061 28.5739C71.9084 28.5549 71.9879 28.5398 72.0447 28.5284L72.3516 29.9318C72.2531 29.9697 72.1129 30.0076 71.9311 30.0455C71.7493 30.0871 71.522 30.1098 71.2493 30.1136C70.8023 30.1212 70.3857 30.0417 69.9993 29.875C69.6129 29.7083 69.3004 29.4508 69.0618 29.1023C68.8232 28.7538 68.7038 28.3163 68.7038 27.7898V19.1818ZM77.6541 30.1761C76.8359 30.1761 76.1219 29.9886 75.5121 29.6136C74.9022 29.2386 74.4287 28.714 74.0916 28.0398C73.7545 27.3655 73.5859 26.5777 73.5859 25.6761C73.5859 24.7708 73.7545 23.9792 74.0916 23.3011C74.4287 22.6231 74.9022 22.0966 75.5121 21.7216C76.1219 21.3466 76.8359 21.1591 77.6541 21.1591C78.4723 21.1591 79.1863 21.3466 79.7962 21.7216C80.406 22.0966 80.8795 22.6231 81.2166 23.3011C81.5537 23.9792 81.7223 24.7708 81.7223 25.6761C81.7223 26.5777 81.5537 27.3655 81.2166 28.0398C80.8795 28.714 80.406 29.2386 79.7962 29.6136C79.1863 29.9886 78.4723 30.1761 77.6541 30.1761ZM77.6598 28.75C78.1901 28.75 78.6295 28.6098 78.978 28.3295C79.3265 28.0492 79.584 27.6761 79.7507 27.2102C79.9212 26.7443 80.0064 26.2311 80.0064 25.6705C80.0064 25.1136 79.9212 24.6023 79.7507 24.1364C79.584 23.6667 79.3265 23.2898 78.978 23.0057C78.6295 22.7216 78.1901 22.5795 77.6598 22.5795C77.1257 22.5795 76.6825 22.7216 76.3303 23.0057C75.9818 23.2898 75.7223 23.6667 75.5518 24.1364C75.3852 24.6023 75.3018 25.1136 75.3018 25.6705C75.3018 26.2311 75.3852 26.7443 75.5518 27.2102C75.7223 27.6761 75.9818 28.0492 76.3303 28.3295C76.6825 28.6098 77.1257 28.75 77.6598 28.75ZM83.6186 30V21.2727H85.2493V22.6932H85.3572C85.5391 22.2121 85.8364 21.8371 86.2493 21.5682C86.6622 21.2955 87.1565 21.1591 87.7322 21.1591C88.3156 21.1591 88.8042 21.2955 89.1982 21.5682C89.5959 21.8409 89.8894 22.2159 90.0788 22.6932H90.1697C90.3781 22.2273 90.7095 21.8561 91.1641 21.5795C91.6186 21.2992 92.1603 21.1591 92.7891 21.1591C93.5807 21.1591 94.2266 21.4072 94.7266 21.9034C95.2304 22.3996 95.4822 23.1477 95.4822 24.1477V30H93.7834V24.3068C93.7834 23.7159 93.6224 23.2879 93.3004 23.0227C92.9785 22.7576 92.594 22.625 92.147 22.625C91.594 22.625 91.1641 22.7955 90.8572 23.1364C90.5504 23.4735 90.397 23.9072 90.397 24.4375V30H88.7038V24.1989C88.7038 23.7254 88.5561 23.3447 88.2607 23.0568C87.9652 22.7689 87.5807 22.625 87.1072 22.625C86.7853 22.625 86.4879 22.7102 86.2152 22.8807C85.9463 23.0473 85.7285 23.2803 85.5618 23.5795C85.3989 23.8788 85.3175 24.2254 85.3175 24.6193V30H83.6186ZM100.299 30.1932C99.746 30.1932 99.246 30.0909 98.799 29.8864C98.352 29.678 97.9979 29.3769 97.7365 28.983C97.4789 28.589 97.3501 28.1061 97.3501 27.5341C97.3501 27.0417 97.4448 26.6364 97.6342 26.3182C97.8236 26 98.0793 25.7481 98.4013 25.5625C98.7232 25.3769 99.0831 25.2367 99.4808 25.142C99.8786 25.0473 100.284 24.9754 100.697 24.9261C101.219 24.8655 101.644 24.8163 101.969 24.7784C102.295 24.7367 102.532 24.6705 102.68 24.5795C102.827 24.4886 102.901 24.3409 102.901 24.1364V24.0966C102.901 23.6004 102.761 23.2159 102.481 22.9432C102.204 22.6705 101.791 22.5341 101.242 22.5341C100.67 22.5341 100.219 22.661 99.8899 22.9148C99.5642 23.1648 99.3388 23.4432 99.2138 23.75L97.6172 23.3864C97.8066 22.8561 98.0831 22.428 98.4467 22.1023C98.8142 21.7727 99.2365 21.5341 99.7138 21.3864C100.191 21.2348 100.693 21.1591 101.219 21.1591C101.568 21.1591 101.937 21.2008 102.327 21.2841C102.721 21.3636 103.089 21.5114 103.43 21.7273C103.774 21.9432 104.057 22.2519 104.276 22.6534C104.496 23.0511 104.606 23.5682 104.606 24.2045V30H102.947V28.8068H102.879C102.769 29.0265 102.604 29.2424 102.384 29.4545C102.165 29.6667 101.882 29.8428 101.538 29.983C101.193 30.1231 100.78 30.1932 100.299 30.1932ZM100.668 28.8295C101.138 28.8295 101.54 28.7367 101.873 28.5511C102.21 28.3655 102.466 28.1231 102.64 27.8239C102.818 27.5208 102.907 27.197 102.907 26.8523V25.7273C102.846 25.7879 102.729 25.8447 102.555 25.8977C102.384 25.947 102.189 25.9905 101.969 26.0284C101.75 26.0625 101.536 26.0947 101.327 26.125C101.119 26.1515 100.945 26.1742 100.805 26.1932C100.475 26.2348 100.174 26.3049 99.9013 26.4034C99.6323 26.5019 99.4164 26.6439 99.2536 26.8295C99.0945 27.0114 99.0149 27.2538 99.0149 27.5568C99.0149 27.9773 99.1702 28.2955 99.4808 28.5114C99.7914 28.7235 100.187 28.8295 100.668 28.8295ZM110.942 21.2727V22.6364H106.175V21.2727H110.942ZM107.454 19.1818H109.153V27.4375C109.153 27.767 109.202 28.0152 109.3 28.1818C109.399 28.3447 109.526 28.4564 109.681 28.517C109.84 28.5739 110.013 28.6023 110.198 28.6023C110.335 28.6023 110.454 28.5928 110.556 28.5739C110.658 28.5549 110.738 28.5398 110.795 28.5284L111.102 29.9318C111.003 29.9697 110.863 30.0076 110.681 30.0455C110.499 30.0871 110.272 30.1098 109.999 30.1136C109.552 30.1212 109.136 30.0417 108.749 29.875C108.363 29.7083 108.05 29.4508 107.812 29.1023C107.573 28.7538 107.454 28.3163 107.454 27.7898V19.1818ZM112.822 30V21.2727H114.521V30H112.822ZM113.68 19.9261C113.384 19.9261 113.13 19.8277 112.918 19.6307C112.71 19.4299 112.606 19.1913 112.606 18.9148C112.606 18.6345 112.71 18.3958 112.918 18.1989C113.13 17.9981 113.384 17.8977 113.68 17.8977C113.975 17.8977 114.227 17.9981 114.435 18.1989C114.647 18.3958 114.754 18.6345 114.754 18.9148C114.754 19.1913 114.647 19.4299 114.435 19.6307C114.227 19.8277 113.975 19.9261 113.68 19.9261ZM120.482 30.1761C119.638 30.1761 118.91 29.9848 118.3 29.6023C117.694 29.2159 117.228 28.6837 116.903 28.0057C116.577 27.3277 116.414 26.5511 116.414 25.6761C116.414 24.7898 116.581 24.0076 116.914 23.3295C117.247 22.6477 117.717 22.1155 118.323 21.733C118.929 21.3504 119.643 21.1591 120.465 21.1591C121.128 21.1591 121.719 21.2822 122.238 21.5284C122.757 21.7708 123.175 22.1117 123.494 22.5511C123.816 22.9905 124.007 23.5038 124.067 24.0909H122.414C122.323 23.6818 122.115 23.3295 121.789 23.0341C121.467 22.7386 121.035 22.5909 120.494 22.5909C120.02 22.5909 119.605 22.7159 119.249 22.9659C118.897 23.2121 118.622 23.5644 118.425 24.0227C118.228 24.4773 118.13 25.0152 118.13 25.6364C118.13 26.2727 118.227 26.822 118.42 27.2841C118.613 27.7462 118.886 28.1042 119.238 28.358C119.594 28.6117 120.013 28.7386 120.494 28.7386C120.816 28.7386 121.107 28.6799 121.369 28.5625C121.634 28.4413 121.855 28.2689 122.033 28.0455C122.215 27.822 122.342 27.553 122.414 27.2386H124.067C124.007 27.803 123.823 28.3068 123.516 28.75C123.21 29.1932 122.799 29.5417 122.283 29.7955C121.772 30.0492 121.172 30.1761 120.482 30.1761Z" fill="#101828"/>
</g>
</svg>
