<svg width="114" height="98" viewBox="0 0 114 98" fill="none" xmlns="http://www.w3.org/2000/svg">
<g style="mix-blend-mode:multiply">
<rect x="0.5" y="0.5" width="113" height="97" rx="12.5" stroke="#E44848"/>
<g clip-path="url(#clip0_12164_563)">
<path d="M66 21C64.6739 21 63.4021 21.5268 62.4645 22.4645C61.5268 23.4021 61 24.6739 61 26C61 26.2652 60.8946 26.5196 60.7071 26.7071C60.5196 26.8946 60.2652 27 60 27C59.7348 27 59.4804 26.8946 59.2929 26.7071C59.1054 26.5196 59 26.2652 59 26C59 24.6155 59.4105 23.2622 60.1797 22.111C60.9489 20.9599 62.0421 20.0627 63.3212 19.5328C64.6003 19.003 66.0078 18.8644 67.3656 19.1345C68.7235 19.4046 69.9708 20.0713 70.9497 21.0503C71.9287 22.0292 72.5954 23.2765 72.8655 24.6344C73.1356 25.9922 72.997 27.3997 72.4672 28.6788C71.9373 29.9579 71.0401 31.0511 69.889 31.8203C68.7378 32.5895 67.3845 33 66 33H42C41.7348 33 41.4804 32.8946 41.2929 32.7071C41.1054 32.5196 41 32.2652 41 32C41 31.7348 41.1054 31.4804 41.2929 31.2929C41.4804 31.1054 41.7348 31 42 31H66C67.3261 31 68.5979 30.4732 69.5355 29.5355C70.4732 28.5979 71 27.3261 71 26C71 24.6739 70.4732 23.4021 69.5355 22.4645C68.5979 21.5268 67.3261 21 66 21ZM52 23C51.4696 23 50.9609 23.2107 50.5858 23.5858C50.2107 23.9609 50 24.4696 50 25C50 25.2652 49.8946 25.5196 49.7071 25.7071C49.5196 25.8946 49.2652 26 49 26C48.7348 26 48.4804 25.8946 48.2929 25.7071C48.1054 25.5196 48 25.2652 48 25C48 24.2089 48.2346 23.4355 48.6741 22.7777C49.1136 22.1199 49.7384 21.6072 50.4693 21.3045C51.2002 21.0017 52.0044 20.9225 52.7804 21.0769C53.5563 21.2312 54.269 21.6122 54.8284 22.1716C55.3878 22.731 55.7688 23.4437 55.9231 24.2196C56.0775 24.9956 55.9983 25.7998 55.6955 26.5307C55.3928 27.2616 54.8801 27.8864 54.2223 28.3259C53.5645 28.7654 52.7911 29 52 29H42C41.7348 29 41.4804 28.8946 41.2929 28.7071C41.1054 28.5196 41 28.2652 41 28C41 27.7348 41.1054 27.4804 41.2929 27.2929C41.4804 27.1054 41.7348 27 42 27H52C52.5304 27 53.0391 26.7893 53.4142 26.4142C53.7893 26.0391 54 25.5304 54 25C54 24.4696 53.7893 23.9609 53.4142 23.5858C53.0391 23.2107 52.5304 23 52 23ZM41 36C41 35.7348 41.1054 35.4804 41.2929 35.2929C41.4804 35.1054 41.7348 35 42 35H62.084C63.2707 35 64.4307 35.3519 65.4174 36.0112C66.4041 36.6705 67.1732 37.6075 67.6273 38.7039C68.0814 39.8003 68.2002 41.0067 67.9687 42.1705C67.7372 43.3344 67.1658 44.4035 66.3266 45.2426C65.4875 46.0818 64.4184 46.6532 63.2545 46.8847C62.0907 47.1162 60.8843 46.9974 59.7879 46.5433C58.6915 46.0892 57.7545 45.3201 57.0952 44.3334C56.4359 43.3467 56.084 42.1867 56.084 41C56.084 40.7348 56.1894 40.4804 56.3769 40.2929C56.5644 40.1054 56.8188 40 57.084 40C57.3492 40 57.6036 40.1054 57.7911 40.2929C57.9786 40.4804 58.084 40.7348 58.084 41C58.084 41.7911 58.3186 42.5645 58.7581 43.2223C59.1976 43.8801 59.8224 44.3928 60.5533 44.6955C61.2842 44.9983 62.0884 45.0775 62.8644 44.9231C63.6403 44.7688 64.353 44.3878 64.9124 43.8284C65.4718 43.269 65.8528 42.5563 66.0071 41.7804C66.1615 41.0044 66.0823 40.2002 65.7795 39.4693C65.4768 38.7384 64.9641 38.1136 64.3063 37.6741C63.6485 37.2346 62.8751 37 62.084 37H42C41.7348 37 41.4804 36.8946 41.2929 36.7071C41.1054 36.5196 41 36.2652 41 36Z" fill="#101828"/>
</g>
<path d="M48.0904 75H46.2268L50.4143 63.3636H52.4427L56.6302 75H54.7666L51.4768 65.4773H51.3859L48.0904 75ZM48.4029 70.4432H54.4484V71.9205H48.4029V70.4432ZM67.3485 67.1477H65.5758C65.5076 66.7689 65.3807 66.4356 65.1951 66.1477C65.0095 65.8598 64.7822 65.6155 64.5133 65.4148C64.2443 65.214 63.9432 65.0625 63.6099 64.9602C63.2803 64.858 62.9299 64.8068 62.5587 64.8068C61.8883 64.8068 61.2879 64.9754 60.7576 65.3125C60.2311 65.6496 59.8144 66.1439 59.5076 66.7955C59.2046 67.447 59.053 68.2424 59.053 69.1818C59.053 70.1288 59.2046 70.928 59.5076 71.5795C59.8144 72.2311 60.233 72.7235 60.7633 73.0568C61.2936 73.3902 61.8902 73.5568 62.553 73.5568C62.9205 73.5568 63.2689 73.5076 63.5985 73.4091C63.9318 73.3068 64.233 73.1572 64.5019 72.9602C64.7708 72.7633 64.9981 72.5227 65.1837 72.2386C65.3731 71.9508 65.5038 71.6212 65.5758 71.25L67.3485 71.2557C67.2538 71.8277 67.0701 72.3542 66.7974 72.8352C66.5284 73.3125 66.1818 73.7254 65.7576 74.0739C65.3371 74.4186 64.8561 74.6856 64.3144 74.875C63.7727 75.0644 63.1818 75.1591 62.5417 75.1591C61.5341 75.1591 60.6364 74.9205 59.8485 74.4432C59.0606 73.9621 58.4394 73.2746 57.9849 72.3807C57.5341 71.4867 57.3087 70.4205 57.3087 69.1818C57.3087 67.9394 57.536 66.8731 57.9905 65.983C58.4451 65.089 59.0663 64.4034 59.8542 63.9261C60.6421 63.4451 61.5379 63.2045 62.5417 63.2045C63.1591 63.2045 63.7349 63.2936 64.2689 63.4716C64.8068 63.6458 65.2898 63.9034 65.7178 64.2443C66.1458 64.5814 66.5 64.9943 66.7803 65.483C67.0606 65.9678 67.25 66.5227 67.3485 67.1477Z" fill="#101828"/>
</g>
<defs>
<clipPath id="clip0_12164_563">
<rect width="32" height="32" fill="white" transform="translate(41 17)"/>
</clipPath>
</defs>
</svg>
