<svg width="114" height="98" viewBox="0 0 114 98" fill="none" xmlns="http://www.w3.org/2000/svg">
<g style="mix-blend-mode:multiply">
<rect x="0.5" y="0.5" width="113" height="97" rx="12.5" stroke="#DADDE1"/>
<path fill-rule="evenodd" clip-rule="evenodd" d="M54 24C54 23.2044 54.3161 22.4413 54.8787 21.8787C55.4413 21.3161 56.2044 21 57 21H59C59.7956 21 60.5587 21.3161 61.1213 21.8787C61.6839 22.4413 62 23.2044 62 24V26C62 26.7956 61.6839 27.5587 61.1213 28.1213C60.5587 28.6839 59.7956 29 59 29V31H70C70.2652 31 70.5196 31.1054 70.7071 31.2929C70.8946 31.4804 71 31.7348 71 32V34C71 34.2652 70.8946 34.5196 70.7071 34.7071C70.5196 34.8946 70.2652 35 70 35C69.7348 35 69.4804 34.8946 69.2929 34.7071C69.1054 34.5196 69 34.2652 69 34V33H59V34C59 34.2652 58.8946 34.5196 58.7071 34.7071C58.5196 34.8946 58.2652 35 58 35C57.7348 35 57.4804 34.8946 57.2929 34.7071C57.1054 34.5196 57 34.2652 57 34V33H47V34C47 34.2652 46.8946 34.5196 46.7071 34.7071C46.5196 34.8946 46.2652 35 46 35C45.7348 35 45.4804 34.8946 45.2929 34.7071C45.1054 34.5196 45 34.2652 45 34V32C45 31.7348 45.1054 31.4804 45.2929 31.2929C45.4804 31.1054 45.7348 31 46 31H57V29C56.2044 29 55.4413 28.6839 54.8787 28.1213C54.3161 27.5587 54 26.7956 54 26V24ZM59 27C59.2652 27 59.5196 26.8946 59.7071 26.7071C59.8946 26.5196 60 26.2652 60 26V24C60 23.7348 59.8946 23.4804 59.7071 23.2929C59.5196 23.1054 59.2652 23 59 23H57C56.7348 23 56.4804 23.1054 56.2929 23.2929C56.1054 23.4804 56 23.7348 56 24V26C56 26.2652 56.1054 26.5196 56.2929 26.7071C56.4804 26.8946 56.7348 27 57 27H59ZM42 40C42 39.2044 42.3161 38.4413 42.8787 37.8787C43.4413 37.3161 44.2044 37 45 37H47C47.7956 37 48.5587 37.3161 49.1213 37.8787C49.6839 38.4413 50 39.2044 50 40V42C50 42.7956 49.6839 43.5587 49.1213 44.1213C48.5587 44.6839 47.7956 45 47 45H45C44.2044 45 43.4413 44.6839 42.8787 44.1213C42.3161 43.5587 42 42.7956 42 42V40ZM45 39C44.7348 39 44.4804 39.1054 44.2929 39.2929C44.1054 39.4804 44 39.7348 44 40V42C44 42.2652 44.1054 42.5196 44.2929 42.7071C44.4804 42.8946 44.7348 43 45 43H47C47.2652 43 47.5196 42.8946 47.7071 42.7071C47.8946 42.5196 48 42.2652 48 42V40C48 39.7348 47.8946 39.4804 47.7071 39.2929C47.5196 39.1054 47.2652 39 47 39H45ZM54 40C54 39.2044 54.3161 38.4413 54.8787 37.8787C55.4413 37.3161 56.2044 37 57 37H59C59.7956 37 60.5587 37.3161 61.1213 37.8787C61.6839 38.4413 62 39.2044 62 40V42C62 42.7956 61.6839 43.5587 61.1213 44.1213C60.5587 44.6839 59.7956 45 59 45H57C56.2044 45 55.4413 44.6839 54.8787 44.1213C54.3161 43.5587 54 42.7956 54 42V40ZM57 39C56.7348 39 56.4804 39.1054 56.2929 39.2929C56.1054 39.4804 56 39.7348 56 40V42C56 42.2652 56.1054 42.5196 56.2929 42.7071C56.4804 42.8946 56.7348 43 57 43H59C59.2652 43 59.5196 42.8946 59.7071 42.7071C59.8946 42.5196 60 42.2652 60 42V40C60 39.7348 59.8946 39.4804 59.7071 39.2929C59.5196 39.1054 59.2652 39 59 39H57ZM66 40C66 39.2044 66.3161 38.4413 66.8787 37.8787C67.4413 37.3161 68.2044 37 69 37H71C71.7956 37 72.5587 37.3161 73.1213 37.8787C73.6839 38.4413 74 39.2044 74 40V42C74 42.7956 73.6839 43.5587 73.1213 44.1213C72.5587 44.6839 71.7956 45 71 45H69C68.2044 45 67.4413 44.6839 66.8787 44.1213C66.3161 43.5587 66 42.7956 66 42V40ZM69 39C68.7348 39 68.4804 39.1054 68.2929 39.2929C68.1054 39.4804 68 39.7348 68 40V42C68 42.2652 68.1054 42.5196 68.2929 42.7071C68.4804 42.8946 68.7348 43 69 43H71C71.2652 43 71.5196 42.8946 71.7071 42.7071C71.8946 42.5196 72 42.2652 72 42V40C72 39.7348 71.8946 39.4804 71.7071 39.2929C71.5196 39.1054 71.2652 39 71 39H69Z" fill="#101828"/>
<path d="M21.3392 75H19.4755L23.663 63.3636H25.6914L29.8789 75H28.0153L24.7255 65.4773H24.6346L21.3392 75ZM21.6517 70.4432H27.6971V71.9205H21.6517V70.4432ZM36.8714 71.3807V66.2727H38.5759V75H36.9055V73.4886H36.8146C36.6138 73.9545 36.2918 74.3428 35.8487 74.6534C35.4093 74.9602 34.8619 75.1136 34.2066 75.1136C33.646 75.1136 33.1498 74.9905 32.718 74.7443C32.29 74.4943 31.9528 74.125 31.7066 73.6364C31.4642 73.1477 31.343 72.5436 31.343 71.8239V66.2727H33.0418V71.6193C33.0418 72.214 33.2066 72.6875 33.5362 73.0398C33.8657 73.392 34.2937 73.5682 34.8203 73.5682C35.1384 73.5682 35.4547 73.4886 35.7691 73.3295C36.0873 73.1705 36.3506 72.9299 36.5589 72.608C36.771 72.286 36.8752 71.8769 36.8714 71.3807ZM44.8525 66.2727V67.6364H40.0854V66.2727H44.8525ZM41.3638 64.1818H43.0627V72.4375C43.0627 72.767 43.1119 73.0152 43.2104 73.1818C43.3089 73.3447 43.4358 73.4564 43.5911 73.517C43.7502 73.5739 43.9225 73.6023 44.1082 73.6023C44.2445 73.6023 44.3638 73.5928 44.4661 73.5739C44.5684 73.5549 44.6479 73.5398 44.7047 73.5284L45.0116 74.9318C44.9131 74.9697 44.7729 75.0076 44.5911 75.0455C44.4093 75.0871 44.182 75.1098 43.9093 75.1136C43.4623 75.1212 43.0457 75.0417 42.6593 74.875C42.2729 74.7083 41.9604 74.4508 41.7218 74.1023C41.4832 73.7538 41.3638 73.3163 41.3638 72.7898V64.1818ZM50.2341 75.1761C49.4159 75.1761 48.7019 74.9886 48.0921 74.6136C47.4822 74.2386 47.0087 73.714 46.6716 73.0398C46.3345 72.3655 46.1659 71.5777 46.1659 70.6761C46.1659 69.7708 46.3345 68.9792 46.6716 68.3011C47.0087 67.6231 47.4822 67.0966 48.0921 66.7216C48.7019 66.3466 49.4159 66.1591 50.2341 66.1591C51.0523 66.1591 51.7663 66.3466 52.3762 66.7216C52.986 67.0966 53.4595 67.6231 53.7966 68.3011C54.1337 68.9792 54.3023 69.7708 54.3023 70.6761C54.3023 71.5777 54.1337 72.3655 53.7966 73.0398C53.4595 73.714 52.986 74.2386 52.3762 74.6136C51.7663 74.9886 51.0523 75.1761 50.2341 75.1761ZM50.2398 73.75C50.7701 73.75 51.2095 73.6098 51.558 73.3295C51.9065 73.0492 52.164 72.6761 52.3307 72.2102C52.5012 71.7443 52.5864 71.2311 52.5864 70.6705C52.5864 70.1136 52.5012 69.6023 52.3307 69.1364C52.164 68.6667 51.9065 68.2898 51.558 68.0057C51.2095 67.7216 50.7701 67.5795 50.2398 67.5795C49.7057 67.5795 49.2625 67.7216 48.9103 68.0057C48.5618 68.2898 48.3023 68.6667 48.1318 69.1364C47.9652 69.6023 47.8818 70.1136 47.8818 70.6705C47.8818 71.2311 47.9652 71.7443 48.1318 72.2102C48.3023 72.6761 48.5618 73.0492 48.9103 73.3295C49.2625 73.6098 49.7057 73.75 50.2398 73.75ZM56.1186 75V66.2727H57.7493V67.6932H57.8572C58.0391 67.2121 58.3364 66.8371 58.7493 66.5682C59.1622 66.2955 59.6565 66.1591 60.2322 66.1591C60.8156 66.1591 61.3042 66.2955 61.6982 66.5682C62.0959 66.8409 62.3894 67.2159 62.5788 67.6932H62.6697C62.8781 67.2273 63.2095 66.8561 63.6641 66.5795C64.1186 66.2992 64.6603 66.1591 65.2891 66.1591C66.0807 66.1591 66.7266 66.4072 67.2266 66.9034C67.7304 67.3996 67.9822 68.1477 67.9822 69.1477V75H66.2834V69.3068C66.2834 68.7159 66.1224 68.2879 65.8004 68.0227C65.4785 67.7576 65.094 67.625 64.647 67.625C64.094 67.625 63.6641 67.7955 63.3572 68.1364C63.0504 68.4735 62.897 68.9072 62.897 69.4375V75H61.2038V69.1989C61.2038 68.7254 61.0561 68.3447 60.7607 68.0568C60.4652 67.7689 60.0807 67.625 59.6072 67.625C59.2853 67.625 58.9879 67.7102 58.7152 67.8807C58.4463 68.0473 58.2285 68.2803 58.0618 68.5795C57.8989 68.8788 57.8175 69.2254 57.8175 69.6193V75H56.1186ZM72.719 75.1932C72.166 75.1932 71.666 75.0909 71.219 74.8864C70.772 74.678 70.4179 74.3769 70.1565 73.983C69.8989 73.589 69.7701 73.1061 69.7701 72.5341C69.7701 72.0417 69.8648 71.6364 70.0542 71.3182C70.2436 71 70.4993 70.7481 70.8213 70.5625C71.1432 70.3769 71.5031 70.2367 71.9008 70.142C72.2985 70.0473 72.7039 69.9754 73.1167 69.9261C73.6395 69.8655 74.0637 69.8163 74.3895 69.7784C74.7152 69.7367 74.952 69.6705 75.0997 69.5795C75.2474 69.4886 75.3213 69.3409 75.3213 69.1364V69.0966C75.3213 68.6004 75.1811 68.2159 74.9008 67.9432C74.6243 67.6705 74.2114 67.5341 73.6622 67.5341C73.0902 67.5341 72.6395 67.661 72.3099 67.9148C71.9842 68.1648 71.7588 68.4432 71.6338 68.75L70.0372 68.3864C70.2266 67.8561 70.5031 67.428 70.8667 67.1023C71.2342 66.7727 71.6565 66.5341 72.1338 66.3864C72.611 66.2348 73.1129 66.1591 73.6395 66.1591C73.9879 66.1591 74.3573 66.2008 74.7474 66.2841C75.1414 66.3636 75.5088 66.5114 75.8497 66.7273C76.1944 66.9432 76.4766 67.2519 76.6963 67.6534C76.916 68.0511 77.0258 68.5682 77.0258 69.2045V75H75.3667V73.8068H75.2985C75.1887 74.0265 75.0239 74.2424 74.8042 74.4545C74.5845 74.6667 74.3023 74.8428 73.9576 74.983C73.6129 75.1231 73.2001 75.1932 72.719 75.1932ZM73.0883 73.8295C73.558 73.8295 73.9595 73.7367 74.2929 73.5511C74.63 73.3655 74.8857 73.1231 75.0599 72.8239C75.2379 72.5208 75.327 72.197 75.327 71.8523V70.7273C75.2664 70.7879 75.1489 70.8447 74.9747 70.8977C74.8042 70.947 74.6092 70.9905 74.3895 71.0284C74.1698 71.0625 73.9557 71.0947 73.7474 71.125C73.5391 71.1515 73.3648 71.1742 73.2247 71.1932C72.8951 71.2348 72.594 71.3049 72.3213 71.4034C72.0523 71.5019 71.8364 71.6439 71.6735 71.8295C71.5145 72.0114 71.4349 72.2538 71.4349 72.5568C71.4349 72.9773 71.5902 73.2955 71.9008 73.5114C72.2114 73.7235 72.6073 73.8295 73.0883 73.8295ZM83.2825 66.2727V67.6364H78.5154V66.2727H83.2825ZM79.7938 64.1818H81.4927V72.4375C81.4927 72.767 81.5419 73.0152 81.6404 73.1818C81.7389 73.3447 81.8658 73.4564 82.0211 73.517C82.1802 73.5739 82.3525 73.6023 82.5382 73.6023C82.6745 73.6023 82.7938 73.5928 82.8961 73.5739C82.9984 73.5549 83.0779 73.5398 83.1347 73.5284L83.4416 74.9318C83.3431 74.9697 83.2029 75.0076 83.0211 75.0455C82.8393 75.0871 82.612 75.1098 82.3393 75.1136C81.8923 75.1212 81.4757 75.0417 81.0893 74.875C80.7029 74.7083 80.3904 74.4508 80.1518 74.1023C79.9132 73.7538 79.7938 73.3163 79.7938 72.7898V64.1818ZM85.0817 75V66.2727H86.7806V75H85.0817ZM85.9397 64.9261C85.6442 64.9261 85.3904 64.8277 85.1783 64.6307C84.97 64.4299 84.8658 64.1913 84.8658 63.9148C84.8658 63.6345 84.97 63.3958 85.1783 63.1989C85.3904 62.9981 85.6442 62.8977 85.9397 62.8977C86.2351 62.8977 86.487 62.9981 86.6954 63.1989C86.9075 63.3958 87.0136 63.6345 87.0136 63.9148C87.0136 64.1913 86.9075 64.4299 86.6954 64.6307C86.487 64.8277 86.2351 64.9261 85.9397 64.9261ZM92.6622 75.1761C91.8175 75.1761 91.0903 74.9848 90.4804 74.6023C89.8744 74.2159 89.4085 73.6837 89.0827 73.0057C88.7569 72.3277 88.5941 71.5511 88.5941 70.6761C88.5941 69.7898 88.7607 69.0076 89.0941 68.3295C89.4274 67.6477 89.8971 67.1155 90.5032 66.733C91.1092 66.3504 91.8232 66.1591 92.6452 66.1591C93.3081 66.1591 93.899 66.2822 94.4179 66.5284C94.9369 66.7708 95.3554 67.1117 95.6736 67.5511C95.9956 67.9905 96.1869 68.5038 96.2475 69.0909H94.5941C94.5032 68.6818 94.2948 68.3295 93.9691 68.0341C93.6471 67.7386 93.2153 67.5909 92.6736 67.5909C92.2001 67.5909 91.7854 67.7159 91.4293 67.9659C91.077 68.2121 90.8024 68.5644 90.6054 69.0227C90.4085 69.4773 90.31 70.0152 90.31 70.6364C90.31 71.2727 90.4066 71.822 90.5997 72.2841C90.7929 72.7462 91.0657 73.1042 91.4179 73.358C91.774 73.6117 92.1925 73.7386 92.6736 73.7386C92.9956 73.7386 93.2872 73.6799 93.5486 73.5625C93.8138 73.4413 94.0354 73.2689 94.2134 73.0455C94.3952 72.822 94.5221 72.553 94.5941 72.2386H96.2475C96.1869 72.803 96.0032 73.3068 95.6963 73.75C95.3895 74.1932 94.9785 74.5417 94.4634 74.7955C93.952 75.0492 93.3516 75.1761 92.6622 75.1761Z" fill="#101828"/>
</g>
</svg>
