<svg width="114" height="98" viewBox="0 0 114 98" fill="none" xmlns="http://www.w3.org/2000/svg">
<g style="mix-blend-mode:multiply">
<rect x="0.5" y="0.5" width="113" height="97" rx="12.5" stroke="#DADDE1"/>
<path d="M49 46.5C49 46.7967 48.912 47.0867 48.7472 47.3334C48.5824 47.58 48.3481 47.7723 48.074 47.8858C47.7999 47.9993 47.4983 48.0291 47.2074 47.9712C46.9164 47.9133 46.6491 47.7704 46.4393 47.5607C46.2296 47.3509 46.0867 47.0836 46.0288 46.7926C45.9709 46.5017 46.0006 46.2001 46.1142 45.926C46.2277 45.6519 46.42 45.4176 46.6666 45.2528C46.9133 45.088 47.2033 45 47.5 45C47.8978 45 48.2794 45.158 48.5607 45.4393C48.842 45.7206 49 46.1022 49 46.5ZM51.5 41C51.2033 41 50.9133 41.088 50.6666 41.2528C50.42 41.4176 50.2277 41.6519 50.1142 41.926C50.0007 42.2001 49.9709 42.5017 50.0288 42.7926C50.0867 43.0836 50.2296 43.3509 50.4393 43.5607C50.6491 43.7704 50.9164 43.9133 51.2074 43.9712C51.4983 44.0291 51.7999 43.9993 52.074 43.8858C52.3481 43.7723 52.5824 43.58 52.7472 43.3334C52.912 43.0867 53 42.7967 53 42.5C53 42.1022 52.842 41.7206 52.5607 41.4393C52.2794 41.158 51.8978 41 51.5 41ZM43.5 41C43.2033 41 42.9133 41.088 42.6666 41.2528C42.42 41.4176 42.2277 41.6519 42.1142 41.926C42.0006 42.2001 41.9709 42.5017 42.0288 42.7926C42.0867 43.0836 42.2296 43.3509 42.4393 43.5607C42.6491 43.7704 42.9164 43.9133 43.2074 43.9712C43.4983 44.0291 43.7999 43.9993 44.074 43.8858C44.3481 43.7723 44.5824 43.58 44.7472 43.3334C44.912 43.0867 45 42.7967 45 42.5C45 42.1022 44.842 41.7206 44.5607 41.4393C44.2794 41.158 43.8978 41 43.5 41ZM47.5 37C47.2033 37 46.9133 37.088 46.6666 37.2528C46.42 37.4176 46.2277 37.6519 46.1142 37.926C46.0006 38.2001 45.9709 38.5017 46.0288 38.7926C46.0867 39.0836 46.2296 39.3509 46.4393 39.5607C46.6491 39.7704 46.9164 39.9133 47.2074 39.9712C47.4983 40.0291 47.7999 39.9993 48.074 39.8858C48.3481 39.7723 48.5824 39.58 48.7472 39.3334C48.912 39.0867 49 38.7967 49 38.5C49 38.1022 48.842 37.7206 48.5607 37.4393C48.2794 37.158 47.8978 37 47.5 37ZM73 22C73 22.2652 72.8946 22.5196 72.7071 22.7071C72.5196 22.8946 72.2652 23 72 23H68.4137L64.9325 26.4825L62.225 42.3312C62.1641 42.6933 62.0046 43.0317 61.7642 43.3091C61.5237 43.5866 61.2115 43.7925 60.8617 43.9043C60.512 44.0161 60.1382 44.0295 59.7814 43.943C59.4245 43.8564 59.0984 43.6733 58.8388 43.4137L46.5888 31.1637C46.3288 30.9039 46.1454 30.5774 46.0589 30.2201C45.9723 29.8628 45.9859 29.4886 46.0982 29.1385C46.2104 28.7885 46.417 28.4761 46.6952 28.2358C46.9733 27.9955 47.3124 27.8365 47.675 27.7763L63.5175 25.0675L67.2925 21.2925C67.3854 21.1997 67.4958 21.1261 67.6171 21.0759C67.7385 21.0257 67.8686 20.9999 68 21H72C72.2652 21 72.5196 21.1054 72.7071 21.2929C72.8946 21.4804 73 21.7348 73 22ZM62.7763 27.2238L48 29.75L60.25 42L62.7763 27.2238Z" fill="#101828"/>
<path d="M21.2615 75V63.3636H25.5229C26.3487 63.3636 27.0324 63.5 27.574 63.7727C28.1157 64.0417 28.521 64.4072 28.7899 64.8693C29.0589 65.3277 29.1934 65.8447 29.1934 66.4205C29.1934 66.9053 29.1043 67.3144 28.9263 67.6477C28.7483 67.9773 28.5096 68.2424 28.2104 68.4432C27.9149 68.6402 27.5892 68.7841 27.2331 68.875V68.9886C27.6195 69.0076 27.9964 69.1326 28.3638 69.3636C28.735 69.5909 29.0418 69.9148 29.2843 70.3352C29.5267 70.7557 29.6479 71.267 29.6479 71.8693C29.6479 72.464 29.5077 72.9981 29.2274 73.4716C28.9509 73.9413 28.5229 74.3144 27.9434 74.5909C27.3638 74.8636 26.6233 75 25.7218 75H21.2615ZM23.0172 73.4943H25.5513C26.3922 73.4943 26.9945 73.3314 27.3581 73.0057C27.7218 72.6799 27.9036 72.2727 27.9036 71.7841C27.9036 71.4167 27.8108 71.0795 27.6252 70.7727C27.4396 70.4659 27.1744 70.2216 26.8297 70.0398C26.4888 69.858 26.0835 69.767 25.6138 69.767H23.0172V73.4943ZM23.0172 68.3977H25.3695C25.7634 68.3977 26.1176 68.322 26.432 68.1705C26.7502 68.0189 27.0021 67.8068 27.1877 67.5341C27.3771 67.2576 27.4718 66.9318 27.4718 66.5568C27.4718 66.0758 27.3032 65.6723 26.9661 65.3466C26.629 65.0208 26.1119 64.858 25.4149 64.858H23.0172V68.3977ZM34.0537 75.1932C33.5007 75.1932 33.0007 75.0909 32.5537 74.8864C32.1067 74.678 31.7526 74.3769 31.4912 73.983C31.2336 73.589 31.1048 73.1061 31.1048 72.5341C31.1048 72.0417 31.1995 71.6364 31.3889 71.3182C31.5783 71 31.834 70.7481 32.156 70.5625C32.4779 70.3769 32.8378 70.2367 33.2355 70.142C33.6332 70.0473 34.0385 69.9754 34.4514 69.9261C34.9741 69.8655 35.3984 69.8163 35.7241 69.7784C36.0499 69.7367 36.2866 69.6705 36.4344 69.5795C36.5821 69.4886 36.656 69.3409 36.656 69.1364V69.0966C36.656 68.6004 36.5158 68.2159 36.2355 67.9432C35.959 67.6705 35.5461 67.5341 34.9969 67.5341C34.4249 67.5341 33.9741 67.661 33.6446 67.9148C33.3188 68.1648 33.0935 68.4432 32.9685 68.75L31.3719 68.3864C31.5613 67.8561 31.8378 67.428 32.2014 67.1023C32.5688 66.7727 32.9912 66.5341 33.4685 66.3864C33.9457 66.2348 34.4476 66.1591 34.9741 66.1591C35.3226 66.1591 35.6919 66.2008 36.0821 66.2841C36.476 66.3636 36.8435 66.5114 37.1844 66.7273C37.5291 66.9432 37.8113 67.2519 38.031 67.6534C38.2507 68.0511 38.3605 68.5682 38.3605 69.2045V75H36.7014V73.8068H36.6332C36.5234 74.0265 36.3586 74.2424 36.1389 74.4545C35.9192 74.6667 35.637 74.8428 35.2923 74.983C34.9476 75.1231 34.5348 75.1932 34.0537 75.1932ZM34.423 73.8295C34.8927 73.8295 35.2942 73.7367 35.6276 73.5511C35.9647 73.3655 36.2204 73.1231 36.3946 72.8239C36.5726 72.5208 36.6616 72.197 36.6616 71.8523V70.7273C36.601 70.7879 36.4836 70.8447 36.3094 70.8977C36.1389 70.947 35.9438 70.9905 35.7241 71.0284C35.5044 71.0625 35.2904 71.0947 35.0821 71.125C34.8738 71.1515 34.6995 71.1742 34.5594 71.1932C34.2298 71.2348 33.9287 71.3049 33.656 71.4034C33.387 71.5019 33.1711 71.6439 33.0082 71.8295C32.8491 72.0114 32.7696 72.2538 32.7696 72.5568C32.7696 72.9773 32.9249 73.2955 33.2355 73.5114C33.5461 73.7235 33.9419 73.8295 34.423 73.8295ZM44.6172 66.2727V67.6364H39.8501V66.2727H44.6172ZM41.1285 64.1818H42.8274V72.4375C42.8274 72.767 42.8766 73.0152 42.9751 73.1818C43.0736 73.3447 43.2005 73.4564 43.3558 73.517C43.5149 73.5739 43.6872 73.6023 43.8728 73.6023C44.0092 73.6023 44.1285 73.5928 44.2308 73.5739C44.3331 73.5549 44.4126 73.5398 44.4694 73.5284L44.7762 74.9318C44.6778 74.9697 44.5376 75.0076 44.3558 75.0455C44.174 75.0871 43.9467 75.1098 43.674 75.1136C43.227 75.1212 42.8103 75.0417 42.424 74.875C42.0376 74.7083 41.7251 74.4508 41.4865 74.1023C41.2478 73.7538 41.1285 73.3163 41.1285 72.7898V64.1818ZM48.3028 69.8182V75H46.6039V63.3636H48.2801V67.6932H48.388C48.5926 67.2235 48.9051 66.8504 49.3255 66.5739C49.746 66.2973 50.2952 66.1591 50.9732 66.1591C51.5717 66.1591 52.0944 66.2822 52.5414 66.5284C52.9922 66.7746 53.3407 67.142 53.5869 67.6307C53.8369 68.1155 53.9619 68.7216 53.9619 69.4489V75H52.263V69.6534C52.263 69.0133 52.0982 68.517 51.7687 68.1648C51.4391 67.8087 50.9808 67.6307 50.3937 67.6307C49.9922 67.6307 49.6323 67.7159 49.3141 67.8864C48.9998 68.0568 48.7516 68.3068 48.5698 68.6364C48.3918 68.9621 48.3028 69.3561 48.3028 69.8182ZM56.1489 75V66.2727H57.791V67.6591H57.8819C58.041 67.1894 58.3213 66.8201 58.7228 66.5511C59.1281 66.2784 59.5864 66.142 60.0978 66.142C60.2038 66.142 60.3288 66.1458 60.4728 66.1534C60.6205 66.161 60.736 66.1705 60.8194 66.1818V67.8068C60.7512 67.7879 60.63 67.767 60.4557 67.7443C60.2815 67.7178 60.1073 67.7045 59.933 67.7045C59.5315 67.7045 59.1735 67.7898 58.8591 67.9602C58.5485 68.1269 58.3023 68.3598 58.1205 68.6591C57.9387 68.9545 57.8478 69.2917 57.8478 69.6705V75H56.1489ZM65.5732 75.1761C64.755 75.1761 64.041 74.9886 63.4311 74.6136C62.8213 74.2386 62.3478 73.714 62.0107 73.0398C61.6736 72.3655 61.505 71.5777 61.505 70.6761C61.505 69.7708 61.6736 68.9792 62.0107 68.3011C62.3478 67.6231 62.8213 67.0966 63.4311 66.7216C64.041 66.3466 64.755 66.1591 65.5732 66.1591C66.3914 66.1591 67.1054 66.3466 67.7152 66.7216C68.3251 67.0966 68.7986 67.6231 69.1357 68.3011C69.4728 68.9792 69.6414 69.7708 69.6414 70.6761C69.6414 71.5777 69.4728 72.3655 69.1357 73.0398C68.7986 73.714 68.3251 74.2386 67.7152 74.6136C67.1054 74.9886 66.3914 75.1761 65.5732 75.1761ZM65.5789 73.75C66.1092 73.75 66.5486 73.6098 66.897 73.3295C67.2455 73.0492 67.5031 72.6761 67.6698 72.2102C67.8402 71.7443 67.9255 71.2311 67.9255 70.6705C67.9255 70.1136 67.8402 69.6023 67.6698 69.1364C67.5031 68.6667 67.2455 68.2898 66.897 68.0057C66.5486 67.7216 66.1092 67.5795 65.5789 67.5795C65.0448 67.5795 64.6016 67.7216 64.2493 68.0057C63.9008 68.2898 63.6414 68.6667 63.4709 69.1364C63.3042 69.6023 63.2209 70.1136 63.2209 70.6705C63.2209 71.2311 63.3042 71.7443 63.4709 72.2102C63.6414 72.6761 63.9008 73.0492 64.2493 73.3295C64.6016 73.6098 65.0448 73.75 65.5789 73.75ZM75.1338 75.1761C74.3156 75.1761 73.6016 74.9886 72.9918 74.6136C72.3819 74.2386 71.9084 73.714 71.5713 73.0398C71.2342 72.3655 71.0656 71.5777 71.0656 70.6761C71.0656 69.7708 71.2342 68.9792 71.5713 68.3011C71.9084 67.6231 72.3819 67.0966 72.9918 66.7216C73.6016 66.3466 74.3156 66.1591 75.1338 66.1591C75.952 66.1591 76.666 66.3466 77.2759 66.7216C77.8857 67.0966 78.3592 67.6231 78.6963 68.3011C79.0334 68.9792 79.202 69.7708 79.202 70.6761C79.202 71.5777 79.0334 72.3655 78.6963 73.0398C78.3592 73.714 77.8857 74.2386 77.2759 74.6136C76.666 74.9886 75.952 75.1761 75.1338 75.1761ZM75.1395 73.75C75.6698 73.75 76.1092 73.6098 76.4577 73.3295C76.8062 73.0492 77.0637 72.6761 77.2304 72.2102C77.4009 71.7443 77.4861 71.2311 77.4861 70.6705C77.4861 70.1136 77.4009 69.6023 77.2304 69.1364C77.0637 68.6667 76.8062 68.2898 76.4577 68.0057C76.1092 67.7216 75.6698 67.5795 75.1395 67.5795C74.6054 67.5795 74.1622 67.7216 73.8099 68.0057C73.4615 68.2898 73.202 68.6667 73.0315 69.1364C72.8649 69.6023 72.7815 70.1136 72.7815 70.6705C72.7815 71.2311 72.8649 71.7443 73.0315 72.2102C73.202 72.6761 73.4615 73.0492 73.8099 73.3295C74.1622 73.6098 74.6054 73.75 75.1395 73.75ZM81.0183 75V66.2727H82.649V67.6932H82.7569C82.9387 67.2121 83.2361 66.8371 83.649 66.5682C84.0619 66.2955 84.5562 66.1591 85.1319 66.1591C85.7153 66.1591 86.2039 66.2955 86.5978 66.5682C86.9956 66.8409 87.2891 67.2159 87.4785 67.6932H87.5694C87.7778 67.2273 88.1092 66.8561 88.5637 66.5795C89.0183 66.2992 89.56 66.1591 90.1887 66.1591C90.9804 66.1591 91.6262 66.4072 92.1262 66.9034C92.63 67.3996 92.8819 68.1477 92.8819 69.1477V75H91.1831V69.3068C91.1831 68.7159 91.0221 68.2879 90.7001 68.0227C90.3781 67.7576 89.9937 67.625 89.5467 67.625C88.9937 67.625 88.5637 67.7955 88.2569 68.1364C87.9501 68.4735 87.7967 68.9072 87.7967 69.4375V75H86.1035V69.1989C86.1035 68.7254 85.9558 68.3447 85.6603 68.0568C85.3649 67.7689 84.9804 67.625 84.5069 67.625C84.185 67.625 83.8876 67.7102 83.6149 67.8807C83.3459 68.0473 83.1281 68.2803 82.9615 68.5795C82.7986 68.8788 82.7172 69.2254 82.7172 69.6193V75H81.0183Z" fill="#101828"/>
</g>
</svg>
