<svg width="114" height="98" viewBox="0 0 114 98" fill="none" xmlns="http://www.w3.org/2000/svg">
<g style="mix-blend-mode:multiply">
<rect x="0.5" y="0.5" width="113" height="97" rx="12.5" stroke="#DADDE1"/>
<g clip-path="url(#clip0_12164_571)">
<path fill-rule="evenodd" clip-rule="evenodd" d="M42.5001 29C42.3505 29.0001 42.2027 29.0337 42.0678 29.0984C41.9329 29.1632 41.8143 29.2574 41.7206 29.3741C41.627 29.4907 41.5607 29.627 41.5267 29.7727C41.4927 29.9184 41.4918 30.0699 41.5241 30.216L44.8281 45.084C45.0747 46.1945 45.6926 47.1877 46.5799 47.8997C47.4671 48.6116 48.5705 48.9998 49.7081 49H61.2921C62.4297 48.9998 63.5331 48.6116 64.4203 47.8997C65.3076 47.1877 65.9255 46.1945 66.1721 45.084L66.4341 43.904C67.9639 44.1901 69.5451 43.8706 70.8438 43.0129C72.1425 42.1552 73.0571 40.8264 73.3945 39.307C73.7319 37.7876 73.4657 36.1966 72.6521 34.8698C71.8386 33.543 70.5413 32.5843 69.0341 32.196L69.4761 30.216C69.5084 30.0699 69.5075 29.9184 69.4735 29.7727C69.4395 29.627 69.3732 29.4907 69.2796 29.3741C69.1859 29.2574 69.0673 29.1632 68.9323 29.0984C68.7974 29.0337 68.6497 29.0001 68.5001 29H42.5001ZM67.5001 42C67.2884 42.0001 67.0771 41.9834 66.8681 41.95L68.6021 34.154C69.5271 34.4219 70.3245 35.0144 70.8479 35.8227C71.3714 36.631 71.5858 37.601 71.4518 38.5546C71.3179 39.5083 70.8446 40.3817 70.1187 41.0145C69.3928 41.6474 68.4631 41.9973 67.5001 42ZM46.7801 44.65L43.7461 31H67.2541L64.2201 44.65C64.0722 45.3164 63.7015 45.9124 63.1691 46.3396C62.6368 46.7669 61.9747 46.9998 61.2921 47H49.7081C49.0255 46.9998 48.3634 46.7669 47.831 46.3396C47.2987 45.9124 46.928 45.3164 46.7801 44.65Z" fill="#101828"/>
<path d="M50.3 18.6L50.294 18.608L50.266 18.646C50.1205 18.8462 49.9843 19.0531 49.858 19.266C49.7507 19.4366 49.6564 19.6151 49.576 19.8C49.524 19.92 49.508 19.984 49.502 20.006V20.014C49.5251 20.1908 49.5872 20.3602 49.684 20.51C49.834 20.776 50.04 21.054 50.3 21.4L50.32 21.424C50.556 21.74 50.84 22.118 51.06 22.51C51.284 22.91 51.5 23.42 51.5 24C51.5 24.376 51.37 24.736 51.262 24.988C51.1464 25.2562 51.0114 25.5155 50.858 25.764C50.7011 26.0263 50.5323 26.2812 50.352 26.528L50.316 26.578L50.306 26.594L50.302 26.598C50.1431 26.8104 49.9064 26.9511 49.6438 26.9889C49.3813 27.0268 49.1144 26.9589 48.902 26.8C48.6896 26.6411 48.5489 26.4044 48.5111 26.1418C48.4732 25.8793 48.5411 25.6124 48.7 25.4L48.706 25.392L48.734 25.354C48.8795 25.1538 49.0157 24.9469 49.142 24.734C49.2493 24.5634 49.3436 24.3848 49.424 24.2C49.476 24.08 49.492 24.016 49.498 23.994C49.4767 23.8146 49.4152 23.6423 49.318 23.49C49.1323 23.1797 48.9259 22.8824 48.7 22.6L48.68 22.576C48.4098 22.2306 48.1626 21.8678 47.94 21.49C47.6676 21.0395 47.516 20.5262 47.5 20C47.5 19.624 47.63 19.264 47.738 19.012C47.856 18.736 48.006 18.464 48.142 18.236C48.3009 17.975 48.4697 17.7201 48.648 17.472L48.698 17.402C48.8569 17.1896 49.0936 17.0489 49.3562 17.011C49.6187 16.9732 49.8856 17.0411 50.098 17.2C50.3104 17.3589 50.4511 17.5956 50.4889 17.8582C50.5268 18.1207 50.4589 18.3876 50.3 18.6ZM56.3 18.6L56.294 18.608L56.266 18.646C56.1205 18.8462 55.9843 19.0531 55.858 19.266C55.7507 19.4366 55.6564 19.6151 55.576 19.8C55.524 19.92 55.508 19.984 55.502 20.006V20.014C55.5251 20.1908 55.5872 20.3602 55.684 20.51C55.834 20.776 56.04 21.054 56.3 21.4L56.32 21.424C56.556 21.74 56.84 22.118 57.06 22.51C57.284 22.91 57.5 23.42 57.5 24C57.5 24.376 57.37 24.736 57.262 24.988C57.1464 25.2562 57.0114 25.5155 56.858 25.764C56.7011 26.0263 56.5323 26.2812 56.352 26.528L56.316 26.578L56.306 26.594L56.302 26.598C56.1431 26.8104 55.9064 26.9511 55.6438 26.9889C55.3813 27.0268 55.1144 26.9589 54.902 26.8C54.6896 26.6411 54.5489 26.4044 54.5111 26.1418C54.4732 25.8793 54.5411 25.6124 54.7 25.4L54.706 25.392L54.734 25.354C54.8795 25.1538 55.0157 24.9469 55.142 24.734C55.2493 24.5634 55.3436 24.3848 55.424 24.2C55.476 24.08 55.492 24.016 55.498 23.994C55.4767 23.8146 55.4152 23.6423 55.318 23.49C55.1323 23.1797 54.9259 22.8824 54.7 22.6L54.68 22.576C54.4098 22.2306 54.1626 21.8678 53.94 21.49C53.6676 21.0395 53.516 20.5262 53.5 20C53.5 19.624 53.63 19.264 53.738 19.012C53.856 18.736 54.006 18.464 54.142 18.236C54.3009 17.975 54.4697 17.7201 54.648 17.472L54.698 17.402C54.8569 17.1896 55.0936 17.0489 55.3562 17.011C55.6187 16.9732 55.8856 17.0411 56.098 17.2C56.3104 17.3589 56.4511 17.5956 56.4889 17.8582C56.5268 18.1207 56.4589 18.3876 56.3 18.6ZM62.3 18.6L62.294 18.608L62.266 18.646C62.1205 18.8462 61.9843 19.0531 61.858 19.266C61.7507 19.4366 61.6564 19.6151 61.576 19.8C61.524 19.92 61.508 19.984 61.502 20.006V20.014C61.5251 20.1908 61.5872 20.3602 61.684 20.51C61.834 20.776 62.04 21.054 62.3 21.4L62.32 21.424C62.556 21.74 62.84 22.118 63.06 22.51C63.284 22.91 63.5 23.42 63.5 24C63.5 24.376 63.37 24.736 63.262 24.988C63.1464 25.2562 63.0114 25.5155 62.858 25.764C62.7017 26.0262 62.5336 26.2812 62.354 26.528L62.316 26.578L62.306 26.594L62.302 26.598C62.1431 26.8104 61.9064 26.9511 61.6438 26.9889C61.3813 27.0268 61.1144 26.9589 60.902 26.8C60.6896 26.6411 60.5489 26.4044 60.5111 26.1418C60.4732 25.8793 60.5411 25.6124 60.7 25.4L60.706 25.392L60.734 25.354C60.8795 25.1538 61.0157 24.9469 61.142 24.734C61.2493 24.5634 61.3436 24.3848 61.424 24.2C61.476 24.08 61.492 24.016 61.498 23.994C61.4767 23.8146 61.4152 23.6423 61.318 23.49C61.1324 23.1797 60.9259 22.8824 60.7 22.6L60.68 22.576C60.4098 22.2306 60.1626 21.8678 59.94 21.49C59.6676 21.0395 59.516 20.5262 59.5 20C59.5 19.624 59.63 19.264 59.738 19.012C59.856 18.736 60.006 18.464 60.142 18.236C60.3009 17.975 60.4697 17.7201 60.648 17.472L60.698 17.402C60.8569 17.1896 61.0936 17.0489 61.3562 17.011C61.6187 16.9732 61.8856 17.0411 62.098 17.2C62.3104 17.3589 62.4511 17.5956 62.4889 17.8582C62.5268 18.1207 62.4589 18.3876 62.3 18.6Z" fill="#101828"/>
</g>
<path d="M29.6825 75V63.3636H31.4382V68.9205H31.5802L36.4609 63.3636H38.6711L33.9779 68.6023L38.6882 75H36.5745L32.8132 69.8011L31.4382 71.3807V75H29.6825ZM40.638 75V66.2727H42.3368V75H40.638ZM41.4959 64.9261C41.2005 64.9261 40.9467 64.8277 40.7346 64.6307C40.5262 64.4299 40.4221 64.1913 40.4221 63.9148C40.4221 63.6345 40.5262 63.3958 40.7346 63.1989C40.9467 62.9981 41.2005 62.8977 41.4959 62.8977C41.7914 62.8977 42.0433 62.9981 42.2516 63.1989C42.4637 63.3958 42.5698 63.6345 42.5698 63.9148C42.5698 64.1913 42.4637 64.4299 42.2516 64.6307C42.0433 64.8277 41.7914 64.9261 41.4959 64.9261ZM48.6162 66.2727V67.6364H43.8492V66.2727H48.6162ZM45.1276 64.1818H46.8264V72.4375C46.8264 72.767 46.8757 73.0152 46.9742 73.1818C47.0727 73.3447 47.1996 73.4564 47.3549 73.517C47.5139 73.5739 47.6863 73.6023 47.8719 73.6023C48.0083 73.6023 48.1276 73.5928 48.2299 73.5739C48.3321 73.5549 48.4117 73.5398 48.4685 73.5284L48.7753 74.9318C48.6768 74.9697 48.5367 75.0076 48.3549 75.0455C48.173 75.0871 47.9458 75.1098 47.673 75.1136C47.2261 75.1212 46.8094 75.0417 46.423 74.875C46.0367 74.7083 45.7242 74.4508 45.4855 74.1023C45.2469 73.7538 45.1276 73.3163 45.1276 72.7898V64.1818ZM53.9979 75.1761C53.1532 75.1761 52.4259 74.9848 51.8161 74.6023C51.21 74.2159 50.7441 73.6837 50.4183 73.0057C50.0926 72.3277 49.9297 71.5511 49.9297 70.6761C49.9297 69.7898 50.0964 69.0076 50.4297 68.3295C50.763 67.6477 51.2327 67.1155 51.8388 66.733C52.4448 66.3504 53.1589 66.1591 53.9808 66.1591C54.6437 66.1591 55.2346 66.2822 55.7536 66.5284C56.2725 66.7708 56.6911 67.1117 57.0092 67.5511C57.3312 67.9905 57.5225 68.5038 57.5831 69.0909H55.9297C55.8388 68.6818 55.6304 68.3295 55.3047 68.0341C54.9827 67.7386 54.5509 67.5909 54.0092 67.5909C53.5357 67.5909 53.121 67.7159 52.7649 67.9659C52.4126 68.2121 52.138 68.5644 51.9411 69.0227C51.7441 69.4773 51.6456 70.0152 51.6456 70.6364C51.6456 71.2727 51.7422 71.822 51.9354 72.2841C52.1286 72.7462 52.4013 73.1042 52.7536 73.358C53.1096 73.6117 53.5282 73.7386 54.0092 73.7386C54.3312 73.7386 54.6229 73.6799 54.8842 73.5625C55.1494 73.4413 55.371 73.2689 55.549 73.0455C55.7308 72.822 55.8577 72.553 55.9297 72.2386H57.5831C57.5225 72.803 57.3388 73.3068 57.032 73.75C56.7251 74.1932 56.3142 74.5417 55.799 74.7955C55.2876 75.0492 54.6873 75.1761 53.9979 75.1761ZM61.0187 69.8182V75H59.3199V63.3636H60.996V67.6932H61.1039C61.3085 67.2235 61.621 66.8504 62.0414 66.5739C62.4619 66.2973 63.0111 66.1591 63.6892 66.1591C64.2877 66.1591 64.8104 66.2822 65.2574 66.5284C65.7081 66.7746 66.0566 67.142 66.3028 67.6307C66.5528 68.1155 66.6778 68.7216 66.6778 69.4489V75H64.9789V69.6534C64.9789 69.0133 64.8142 68.517 64.4846 68.1648C64.1551 67.8087 63.6968 67.6307 63.1096 67.6307C62.7081 67.6307 62.3483 67.7159 62.0301 67.8864C61.7157 68.0568 61.4676 68.3068 61.2858 68.6364C61.1077 68.9621 61.0187 69.3561 61.0187 69.8182ZM72.6262 75.1761C71.7664 75.1761 71.0258 74.9924 70.4046 74.625C69.7872 74.2538 69.3099 73.733 68.9728 73.0625C68.6395 72.3883 68.4728 71.5985 68.4728 70.6932C68.4728 69.7992 68.6395 69.0114 68.9728 68.3295C69.3099 67.6477 69.7796 67.1155 70.3819 66.733C70.988 66.3504 71.6963 66.1591 72.5069 66.1591C72.9993 66.1591 73.4766 66.2405 73.9387 66.4034C74.4008 66.5663 74.8156 66.822 75.183 67.1705C75.5505 67.5189 75.8402 67.9716 76.0524 68.5284C76.2645 69.0814 76.3705 69.7538 76.3705 70.5455V71.1477H69.433V69.875H74.7058C74.7058 69.428 74.6149 69.0322 74.433 68.6875C74.2512 68.339 73.9955 68.0644 73.666 67.8636C73.3402 67.6629 72.9577 67.5625 72.5183 67.5625C72.041 67.5625 71.6243 67.6799 71.2683 67.9148C70.916 68.1458 70.6433 68.4489 70.4501 68.8239C70.2607 69.1951 70.166 69.5985 70.166 70.0341V71.0284C70.166 71.6117 70.2683 72.108 70.4728 72.517C70.6811 72.9261 70.9709 73.2386 71.3421 73.4545C71.7133 73.6667 72.1471 73.7727 72.6433 73.7727C72.9652 73.7727 73.2588 73.7273 73.5239 73.6364C73.7891 73.5417 74.0183 73.4015 74.2114 73.2159C74.4046 73.0303 74.5524 72.8011 74.6546 72.5284L76.2626 72.8182C76.1338 73.2917 75.9027 73.7064 75.5694 74.0625C75.2399 74.4148 74.8251 74.6894 74.3251 74.8864C73.8289 75.0795 73.2626 75.1761 72.6262 75.1761ZM79.8743 69.8182V75H78.1755V66.2727H79.8062V67.6932H79.9141C80.1149 67.2311 80.4293 66.8598 80.8573 66.5795C81.2891 66.2992 81.8327 66.1591 82.488 66.1591C83.0827 66.1591 83.6035 66.2841 84.0505 66.5341C84.4975 66.7803 84.844 67.1477 85.0903 67.6364C85.3365 68.125 85.4596 68.7292 85.4596 69.4489V75H83.7607V69.6534C83.7607 69.0208 83.5959 68.5265 83.2664 68.1705C82.9368 67.8106 82.4842 67.6307 81.9084 67.6307C81.5145 67.6307 81.1641 67.7159 80.8573 67.8864C80.5543 68.0568 80.3137 68.3068 80.1357 68.6364C79.9615 68.9621 79.8743 69.3561 79.8743 69.8182Z" fill="#101828"/>
</g>
<defs>
<clipPath id="clip0_12164_571">
<rect width="32" height="32" fill="white" transform="translate(41.5 17)"/>
</clipPath>
</defs>
</svg>
